<?xml version="1.0" encoding="UTF-8"?>
<svg version="1.1" xmlns="http://www.w3.org/2000/svg" width="468" height="311">
<path d="M0 0 C2.5 2.1875 2.5 2.1875 4 4 C6.57909986 2.76203207 9.03968595 1.39252444 11.5 -0.0625 C16.47563547 -2.89219544 21.2406705 -3.90936782 27 -3 C35.32932692 0.32932692 35.32932692 0.32932692 38 3 C38.04092937 5.33297433 38.04241723 7.66705225 38 10 C35 11 35 11 31.6875 11.3125 C27.42913656 12.10643217 25.30275488 13.21100699 22 16 C13.73302338 28.63181688 15.90855785 44.60476299 17 59 C17.93718872 59.45475708 17.93718872 59.45475708 18.89331055 59.91870117 C21.15394205 61.07901372 22.46125187 61.97777814 24 64 C24.51171875 66.48046875 24.51171875 66.48046875 24.6875 69.1875 C24.75324219 70.08855469 24.81898438 70.98960938 24.88671875 71.91796875 C24.94279297 72.94857422 24.94279297 72.94857422 25 74 C36.84704379 68.36705795 36.84704379 68.36705795 44.5625 58.375 C45.17242807 55.17273932 45.17242807 55.17273932 44.5 52.75 C42.21933168 50.0892203 40.32603711 49.14899464 37 48 C33.91708856 47.95854909 30.98336645 48.20642452 28 49 C27.01 49.99 27.01 49.99 26 51 C29.01031744 51.93423645 29.86650268 52.04449911 33 51 C34.5625 52.1875 34.5625 52.1875 36 54 C35.9375 56.5625 35.9375 56.5625 35 59 C32.45216953 61.15585656 30.85841957 60.99747178 27.5 60.9375 C24 60 24 60 21.5625 57.9375 C19.4082877 53.88758087 19.5649148 51.56839461 20 47 C20.93123661 44.45682591 21.6204707 43.26719504 23.84765625 41.69921875 C29.51808422 39.10902326 33.93286677 38.22564972 40 40 C44.81707725 42.45398275 47.78137463 45.05075879 50 50 C50.70528946 56.05973188 50.93934702 61.75373538 48.5625 67.4375 C39.89786247 76.10213753 29.83556897 81.85663817 18 85 C18.99257812 85.27972656 19.98515625 85.55945313 21.0078125 85.84765625 C40.2519756 91.44682539 56.00556333 100.15396372 66.875 117.5625 C70.98882767 123.85108552 76.70602098 128.22464224 83.8671875 130.59765625 C90.66278466 131.87960956 97.92558495 130.13560517 104 127 C110.03265349 122.85994368 114.62759865 117.30364786 116.0625 110 C116.38463612 105.32442433 114.65261852 101.76554679 112 98 C107.22802103 93.35037947 102.60721696 91.71278272 96 91.6875 C94.4840625 91.66236328 94.4840625 91.66236328 92.9375 91.63671875 C89.55958749 92.05446591 87.6992515 92.950301 85 95 C83.75322994 97.89706707 83.75322994 97.89706707 84 101 C86.14164344 104.1696323 87.51378821 104.88779728 91.25 105.75 C92.1575 105.8325 93.065 105.915 94 106 C93.67 105.0925 93.34 104.185 93 103.25 C92 100 92 100 92 96 C94.97 96.495 94.97 96.495 98 97 C100.24947501 105.91138177 100.24947501 105.91138177 99.3125 110 C98 112 98 112 95 114 C90.85419331 114.46933661 88.55236609 114.2815984 84.8125 112.375 C80.80388029 108.98994335 78.3029964 106.50908253 77.65234375 101.12109375 C77.49273851 95.46551691 77.54587862 91.67898711 81 87 C86.93718527 83.38606114 93.0905101 82.16107374 100 83 C109.66621417 85.49450688 114.78689408 89.4356117 120 98 C122.25395473 104.7618642 122.14052462 113.95531024 120.19921875 120.83984375 C116.32201802 128.42103694 109.55493494 134.25742499 101.75 137.5 C93.02365815 140.23767587 84.15400494 140.4193808 75.9453125 136.1484375 C75.30335938 135.76945313 74.66140625 135.39046875 74 135 C73.37867188 134.64164063 72.75734375 134.28328125 72.1171875 133.9140625 C70.4375 132.875 70.4375 132.875 68 131 C68 130.34 68 129.68 68 129 C67.01 128.67 66.02 128.34 65 128 C63.7109375 126.06640625 63.7109375 126.06640625 62.375 123.5625 C58.99089422 117.66157183 54.25028985 110.12514493 48 107 C48.33 108.03125 48.66 109.0625 49 110.125 C50.31344895 114.82128869 50.5871787 118.40156909 48.875 123.0625 C46.10578974 127.40092941 42.98262186 130.33912605 38 132 C32.13876749 132.52458535 26.86589858 132.67909405 22 129 C19.56100851 124.69111503 18.14047888 120.94224646 19 116 C20.9375 113.0625 20.9375 113.0625 24 111 C27.10562014 110.88574642 29.97227966 111.3337696 33 112 C33.99 115.465 33.99 115.465 35 119 C31.66666667 119.66666667 28.33333333 120.33333333 25 121 C27.87105327 123.87105327 29.98880169 123.80272795 34 124 C38.29436013 122.78326463 40.37322516 121.83569979 43.0625 118.25 C44.26578126 114.07862497 43.7431683 111.94107615 42 108 C40.20481291 106.95308687 40.20481291 106.95308687 38 106 C36.11400785 104.83003639 34.23963045 103.64121696 32.375 102.4375 C28.76549898 100.08171635 28.76549898 100.08171635 25 98 C25.05800781 98.59167969 25.11601562 99.18335937 25.17578125 99.79296875 C25.43683024 104.36505534 25.52926191 106.31753069 22.625 110.0625 C20 112 20 112 18 112 C18.01160156 112.86882812 18.02320313 113.73765625 18.03515625 114.6328125 C18.04417969 115.78523438 18.05320312 116.93765625 18.0625 118.125 C18.07410156 119.26195313 18.08570313 120.39890625 18.09765625 121.5703125 C18 125 18 125 17.50439453 127.85351562 C16.67744155 133.01216523 16.81553858 138.16078924 16.8125 143.375 C16.80025391 144.47328125 16.78800781 145.5715625 16.77539062 146.703125 C16.75852521 156.08029439 17.2552469 163.09074072 24 170 C27.54692575 172.36461717 29.80147409 172.38433327 33.94140625 172.65625 C36 173 36 173 38 175 C38.375 177.875 38.375 177.875 38 181 C34.84327113 185.05865141 31.70409257 186.7758295 26.64453125 187.44140625 C18.62815204 187.6947271 13.57403589 187.22341452 7.44140625 181.53125 C6.72791016 180.77328125 6.72791016 180.77328125 6 180 C5.48050781 180.40992188 4.96101563 180.81984375 4.42578125 181.2421875 C3.72839844 181.78101563 3.03101563 182.31984375 2.3125 182.875 C1.62800781 183.40867188 0.94351563 183.94234375 0.23828125 184.4921875 C-6.33127481 188.91775231 -12.41428062 188.30558236 -20 187 C-22.8328453 185.9875201 -23.80025411 185.19974589 -26 183 C-27.7290731 179.31632252 -28.29743778 177.89231333 -27 174 C-26.26394531 173.91363281 -25.52789062 173.82726562 -24.76953125 173.73828125 C-18.50442867 172.85143005 -18.50442867 172.85143005 -13.0625 169.8125 C-5.35816023 159.30658213 -5.83119927 149.56041072 -5.9375 136.8125 C-5.94201172 135.76513672 -5.94652344 134.71777344 -5.95117188 133.63867188 C-5.96279876 131.09238464 -5.97913719 128.5462254 -6 126 C-6.66 126 -7.32 126 -8 126 C-8.33 126.99 -8.66 127.98 -9 129 C-12.95139743 132.55625769 -17.14243732 132.50769071 -22.2109375 132.34375 C-28.12269317 131.61513025 -31.69471857 129.60650022 -35.4375 125 C-37.89485976 120.05280435 -37.82189643 114.42325371 -38 109 C-42.207708 113.42129724 -45.98411906 117.69649801 -48.9375 123.0625 C-52.70892573 129.64199814 -57.83581258 134.05280774 -64.25 138 C-73.61056121 140.49614965 -82.51905017 139.7116388 -91 135 C-97.43337328 130.54612619 -103.2385685 124.24068905 -104.75390625 116.3359375 C-105.82526061 106.16657386 -105.60448576 98.69293565 -99.5 90.3125 C-95.12197368 85.47706795 -89.10896718 83.63998073 -82.79296875 82.65625 C-77.84430349 82.42199366 -73.2967888 83.60866078 -69 86 C-64.50886027 90.37598231 -64.13440643 93.8830988 -63.75 99.9375 C-63.8256849 103.95636812 -64.69999259 106.62665579 -67 110 C-70.28697324 112.83874961 -72.31104234 113.90497136 -76.625 114.5 C-80 114 -80 114 -82.375 112.625 C-84.78936886 108.72486569 -85.40217282 104.56283348 -85 100 C-83.75390625 97.6875 -83.75390625 97.6875 -82 96 C-80.68 96 -79.36 96 -78 96 C-76.75 102.625 -76.75 102.625 -79 106 C-73.68588506 104.07608351 -73.68588506 104.07608351 -70 100 C-69.91776634 96.91004903 -69.91776634 96.91004903 -71 94 C-75.2003458 91.01910943 -81.06159973 91.39867272 -86 92 C-90.66923262 93.40476058 -93.39296293 95.2373124 -96.4375 99.0625 C-99.23379173 104.31952845 -99.9556699 109.12697408 -99 115 C-97.67155813 117.37051304 -96.2060533 119.27494201 -94.41015625 121.30859375 C-93 123 -93 123 -92 126 C-89.88214887 127.11785113 -89.88214887 127.11785113 -87 128 C-86.33484375 128.27199219 -85.6696875 128.54398438 -84.984375 128.82421875 C-78.76831411 131.22587864 -73.31339785 131.83622559 -67.0546875 129.171875 C-60.76814311 125.74285079 -56.70960249 122.01881533 -53.1875 115.8125 C-47.07577752 105.50339631 -40.46216057 98.88400514 -30 93 C-29.29746094 92.59910156 -28.59492188 92.19820313 -27.87109375 91.78515625 C-21.00003346 88.10670983 -13.66824961 86.18913436 -6 85 C-7.05058594 84.50371094 -8.10117188 84.00742188 -9.18359375 83.49609375 C-32.1105134 72.4777373 -32.1105134 72.4777373 -35.7109375 63.16015625 C-37.37417961 57.5332138 -37.31234409 52.68718075 -34.6875 47.3125 C-34.130625 46.549375 -33.57375 45.78625 -33 45 C-32.505 44.278125 -32.01 43.55625 -31.5 42.8125 C-27.41804873 39.85308533 -22.98240832 39.20645338 -18 39 C-13.5847981 39.82243957 -9.88704817 41.48350819 -7 45 C-6.63215076 46.3242265 -6.29430088 47.65751131 -6 49 C-5.88233284 45.52112528 -5.81226685 42.0427723 -5.75 38.5625 C-5.71648437 37.58861328 -5.68296875 36.61472656 -5.6484375 35.61132812 C-5.55710711 28.78438166 -6.74966243 23.97963437 -10 18 C-10.32709961 17.28142822 -10.65419922 16.56285645 -10.99121094 15.82250977 C-12.47271591 13.14597671 -14.11633657 12.85199147 -17 12 C-18.99422795 11.63371323 -20.99453311 11.29868656 -23 11 C-24.33737094 10.68325425 -25.67288808 10.35729936 -27 10 C-27.8125 7.3125 -27.8125 7.3125 -28 4 C-21.11103536 -4.91513071 -9.47443331 -5.21748747 0 0 Z M-14 4 C-12.9171875 5.0209375 -12.9171875 5.0209375 -11.8125 6.0625 C-2.12700378 15.80302745 -0.89004032 26.00926267 -0.9045105 39.33985901 C-0.91220714 41.39326939 -0.9247206 43.44661558 -0.9375 45.5 C-0.94252467 46.90885258 -0.94708587 48.31770689 -0.95117188 49.7265625 C-0.9628997 53.15108638 -0.97931309 56.57552047 -1 60 C0.32 60 1.64 60 3 60 C5.57979066 60.42996511 7.65884511 60.82942256 10 62 C10 61.34 10 60.68 10 60 C10.66 60 11.32 60 12 60 C11.97905273 58.89599854 11.95810547 57.79199707 11.93652344 56.65454102 C11.86362393 52.52283923 11.8180204 48.39119323 11.78027344 44.2590332 C11.76027095 42.47736014 11.73305977 40.69575177 11.69824219 38.91430664 C11.46767251 26.80600793 11.41678821 17.41384519 20 8 C20.98230498 6.9826127 21.97469597 5.97403883 23 5 C18.94393835 5.46800711 15.53411321 5.87953208 12 8 C12 8.66 12 9.32 12 10 C11.34 10 10.68 10 10 10 C9.34 11.98 8.68 13.96 8 16 C5.625 15.8125 5.625 15.8125 3 15 C2.28752268 13.3523962 1.62599617 11.68236471 1 10 C-3.18294233 5.42490683 -8.12722096 4.86666254 -14 4 Z M-29 51 C-31.38313638 54.57470457 -31.64837918 55.78553535 -31 60 C-27.41210703 66.27174992 -21.26357298 69.77974496 -15 73 C-14.67 73 -14.34 73 -14 73 C-13.87882812 72.31292969 -13.75765625 71.62585938 -13.6328125 70.91796875 C-13.46523437 70.01691406 -13.29765625 69.11585937 -13.125 68.1875 C-12.88136719 66.84751953 -12.88136719 66.84751953 -12.6328125 65.48046875 C-12 63 -12 63 -10 60 C-11.27875 59.855625 -12.5575 59.71125 -13.875 59.5625 C-16.25692894 59.29357254 -17.84452691 59.07773654 -20 58 C-20.625 55.4375 -20.625 55.4375 -21 53 C-17.71023192 51.90341064 -16.28696233 52.20046862 -13 53 C-12.34 52.01 -11.68 51.02 -11 50 C-17.54031368 45.24340823 -22.86083956 46.00300894 -29 51 Z M-7 56 C-7.99 57.485 -7.99 57.485 -9 59 C-8.01 59 -7.02 59 -6 59 C-6.33 58.01 -6.66 57.02 -7 56 Z M1 65 C0.71125 65.94875 0.4225 66.8975 0.125 67.875 C-1 71 -1 71 -3 73 C-2.20882096 74.99983534 -2.20882096 74.99983534 -1 77 C3.47254497 78.49084832 7.52745503 78.49084832 12 77 C12.67958603 74.60280568 12.67958603 74.60280568 13 72 C12.34 71.34 11.68 70.68 11 70 C10.30251417 68.68252676 9.63040043 67.35085807 9 66 C8.67 66.99 8.34 67.98 8 69 C6.35 69 4.7 69 3 69 C2.34 67.68 1.68 66.36 1 65 Z M1 94 C0.67 94.33 0.34 94.66 0 95 C0.09086451 97.53541298 0.2370945 100.03554784 0.4375 102.5625 C0.48970703 103.27341797 0.54191406 103.98433594 0.59570312 104.71679688 C0.72574107 106.47821999 0.86226897 108.23916173 1 110 C-0.98 110.99 -0.98 110.99 -3 112 C-3.1794849 116.93583469 -2.95669118 121.55363341 -2.23193359 126.44482422 C-0.1218337 141.17353142 1.76759834 159.77802958 -6.30078125 172.9453125 C-8.62783824 175.75917911 -10.74154728 177.37077364 -14 179 C-14 179.33 -14 179.66 -14 180 C-9.85924556 180.51759431 -7.32516403 180.82510213 -3.72265625 178.58203125 C1.00327146 174.63888771 1.00327146 174.63888771 3 169 C4.98 168.505 4.98 168.505 7 168 C7.20625 168.70125 7.4125 169.4025 7.625 170.125 C9.3934854 173.82274221 11.81240614 176.43694743 15 179 C18.47325181 180.1577506 21.36067448 180.06866652 25 180 C23.71034824 178.62437146 22.37310707 177.29233607 21 176 C20.34 176 19.68 176 19 176 C18.731875 175.443125 18.46375 174.88625 18.1875 174.3125 C17.04308551 171.96407869 17.04308551 171.96407869 15.5 169.8125 C11.21578188 161.77959103 11.716997 152.76988237 11.79418945 143.92382812 C11.81257777 141.74076768 11.81469765 139.5581303 11.81445312 137.375 C11.85418102 126.04372953 11.85418102 126.04372953 13 121 C13.10977959 119.44010868 13.17422586 117.87619316 13.1875 116.3125 C13.20167969 115.54550781 13.21585938 114.77851562 13.23046875 113.98828125 C13.18161136 111.76762091 13.18161136 111.76762091 11 110 C10.85502015 107.41935871 10.81322455 104.95056116 10.875 102.375 C10.88402344 101.66859375 10.89304687 100.9621875 10.90234375 100.234375 C10.92592397 98.48943902 10.96179539 96.74467705 11 95 C10.34 96.32 9.68 97.64 9 99 C6.125 98.75 6.125 98.75 3 98 C1.625 95.9375 1.625 95.9375 1 94 Z M16 97 C16.66 99.31 17.32 101.62 18 104 C18.66 102.68 19.32 101.36 20 100 C18.68 99.01 17.36 98.02 16 97 Z M-21.375 102.1875 C-22.80972656 103.07501953 -22.80972656 103.07501953 -24.2734375 103.98046875 C-28.32768989 106.98340354 -30.60922613 109.63229146 -32 114.5 C-32.2918286 118.03627814 -32.2918286 118.03627814 -30.375 120.8125 C-26.69330493 124.20353493 -24.46306428 125.05133559 -19.4375 124.875 C-15.72597649 123.93024856 -14.36808779 122.93642886 -12 120 C-15.153368 119.29925156 -17.72724974 119 -21 119 C-21 118.01 -21 117.02 -21 116 C-21.66 116 -22.32 116 -23 116 C-21 113 -21 113 -18.94140625 112.453125 C-18.15636719 112.38609375 -17.37132812 112.3190625 -16.5625 112.25 C-15.78003906 112.17265625 -14.99757813 112.0953125 -14.19140625 112.015625 C-12 112 -12 112 -9 113 C-8.67 113.66 -8.34 114.32 -8 115 C-8.33 113.35 -8.66 111.7 -9 110 C-9.66 110 -10.32 110 -11 110 C-11.99 106.37 -12.98 102.74 -14 99 C-17.03942369 99 -18.82515294 100.58444602 -21.375 102.1875 Z M-8 100 C-7.67 101.32 -7.34 102.64 -7 104 C-6.67 103.01 -6.34 102.02 -6 101 C-6.66 100.67 -7.32 100.34 -8 100 Z " fill="#FCFCFC" transform="translate(228,4)"/>
<path d="M0 0 C3.3 0 6.6 0 10 0 C11.09658936 3.28976808 10.79953138 4.71303767 10 8 C11.32 8 12.64 8 14 8 C13.67 5.36 13.34 2.72 13 0 C16.63 0 20.26 0 24 0 C23.85888117 2.75031587 23.71228835 5.50015418 23.5625 8.25 C23.52318359 9.02730469 23.48386719 9.80460937 23.44335938 10.60546875 C23.40146484 11.35957031 23.35957031 12.11367188 23.31640625 12.890625 C23.27974854 13.58188477 23.24309082 14.27314453 23.20532227 14.98535156 C22.99324476 17.06628329 22.55491323 18.98572422 22 21 C19.69 21 17.38 21 15 21 C14.34 18.69 13.68 16.38 13 14 C11.68 14 10.36 14 9 14 C9 16.31 9 18.62 9 21 C6.69 21 4.38 21 2 21 C-0.9973792 15.0052416 -0.10563703 6.5494958 0 0 Z " fill="#FFFFFF" transform="translate(191,277)"/>
<path d="M0 0 C0.71671875 -0.020625 1.4334375 -0.04125 2.171875 -0.0625 C6.74890749 -0.09615465 9.58636699 0.48130025 13.25 3.25 C14.25 4.25 14.25 4.25 14.5 7.125 C14.4175 8.15625 14.335 9.1875 14.25 10.25 C13.71375 10.70375 13.1775 11.1575 12.625 11.625 C12.17125 12.16125 11.7175 12.6975 11.25 13.25 C11.60372201 16.06293217 12.40119383 18.52488545 13.25 21.25 C6.85 21.74230769 6.85 21.74230769 3.8125 19.25 C3.296875 18.59 2.78125 17.93 2.25 17.25 C1.59 18.57 0.93 19.89 0.25 21.25 C-2.06 21.25 -4.37 21.25 -6.75 21.25 C-7.11292146 17.93839717 -7.46386732 14.62563512 -7.8125 11.3125 C-7.91626953 10.36697266 -8.02003906 9.42144531 -8.12695312 8.44726562 C-8.22041016 7.54814453 -8.31386719 6.64902344 -8.41015625 5.72265625 C-8.49918213 4.89000244 -8.58820801 4.05734863 -8.67993164 3.19946289 C-8.7030542 2.55614014 -8.72617676 1.91281738 -8.75 1.25 C-6.72363933 -0.77636067 -2.77022651 0.01950864 0 0 Z M2.25 5.25 C2.25 6.9 2.25 8.55 2.25 10.25 C3.24 9.92 4.23 9.59 5.25 9.25 C4.92 7.93 4.59 6.61 4.25 5.25 C3.59 5.25 2.93 5.25 2.25 5.25 Z " fill="#FFFFFF" transform="translate(386.75,228.75)"/>
<path d="M0 0 C2.56278699 -0.05420701 5.12441483 -0.09377007 7.6875 -0.125 C8.40873047 -0.14175781 9.12996094 -0.15851563 9.87304688 -0.17578125 C14.02357192 -0.21368559 17.32425126 -0.01006528 21 2 C22.39935013 4.79870027 22.25265405 6.90498792 22 10 C21.46375 10.45375 20.9275 10.9075 20.375 11.375 C19.92125 11.91125 19.4675 12.4475 19 13 C19.35372201 15.81293217 20.15119383 18.27488545 21 21 C14.6 21.49230769 14.6 21.49230769 11.5625 19 C11.046875 18.34 10.53125 17.68 10 17 C9.34 18.32 8.68 19.64 8 21 C5.69 21 3.38 21 1 21 C0.14626761 13.97195301 -0.12109311 7.07721931 0 0 Z M10 5 C10 6.65 10 8.3 10 10 C10.99 9.67 11.98 9.34 13 9 C12.67 7.68 12.34 6.36 12 5 C11.34 5 10.68 5 10 5 Z " fill="#FFFFFF" transform="translate(310,229)"/>
<path d="M0 0 C2.56314499 -0.08132187 5.12368418 -0.14064175 7.6875 -0.1875 C8.40873047 -0.21263672 9.12996094 -0.23777344 9.87304688 -0.26367188 C14.48087064 -0.32679275 17.31351222 0.20165268 21 3 C22 4 22 4 22.25 6.875 C22.1675 7.90625 22.085 8.9375 22 10 C21.46375 10.45375 20.9275 10.9075 20.375 11.375 C19.92125 11.91125 19.4675 12.4475 19 13 C19.35372201 15.81293217 20.15119383 18.27488545 21 21 C14.6 21.49230769 14.6 21.49230769 11.5625 19 C11.046875 18.34 10.53125 17.68 10 17 C9.34 18.32 8.68 19.64 8 21 C5.69 21 3.38 21 1 21 C0.14626761 13.97195301 -0.12109311 7.07721931 0 0 Z M10 5 C10 6.65 10 8.3 10 10 C10.99 9.67 11.98 9.34 13 9 C12.67 7.68 12.34 6.36 12 5 C11.34 5 10.68 5 10 5 Z " fill="#FFFFFF" transform="translate(279,277)"/>
<path d="M0 0 C2.54232342 -0.08152344 5.08199202 -0.14073716 7.625 -0.1875 C8.33785156 -0.21263672 9.05070313 -0.23777344 9.78515625 -0.26367188 C14.59277038 -0.3298317 17.84023534 0.32267067 22 3 C23.0625 5.375 23.0625 5.375 23 8 C21.5625 10.625 21.5625 10.625 20 13 C20 15.83967231 20.40267181 18.23735711 21 21 C18.3125 21.3125 18.3125 21.3125 15 21 C12.125 18.5 12.125 18.5 10 16 C9.67 17.65 9.34 19.3 9 21 C6.69 21 4.38 21 2 21 C1.65876419 19.00133314 1.3274322 17.00097458 1 15 C0.814375 13.88625 0.62875 12.7725 0.4375 11.625 C-0.03789028 7.68605195 -0.06953046 3.96323603 0 0 Z M10 5 C10 6.65 10 8.3 10 10 C11.32 9.67 12.64 9.34 14 9 C13.34 7.68 12.68 6.36 12 5 C11.34 5 10.68 5 10 5 Z " fill="#FFFFFF" transform="translate(133,229)"/>
<path d="M0 0 C2.56278699 -0.05420701 5.12441483 -0.09377007 7.6875 -0.125 C8.40873047 -0.14175781 9.12996094 -0.15851563 9.87304688 -0.17578125 C14.02508025 -0.21369936 17.3424503 -0.04931356 21 2 C23 5 23 5 22.8125 8 C21.99790027 11.00775285 21.4044979 12.11821903 19 14 C19.33 14.598125 19.66 15.19625 20 15.8125 C21 18 21 18 21 21 C17.06225823 21.36630156 15.43460229 21.30233203 12.125 19 C11.42375 18.34 10.7225 17.68 10 17 C9.67 18.32 9.34 19.64 9 21 C6.69 21 4.38 21 2 21 C1.66280953 18.43795456 1.33012847 15.87545682 1 13.3125 C0.90460938 12.59126953 0.80921875 11.87003906 0.7109375 11.12695312 C0.23316265 7.39007129 -0.11919794 3.77708469 0 0 Z M11 5 C10.67 6.65 10.34 8.3 10 10 C11.32 9.67 12.64 9.34 14 9 C14 8.01 14 7.02 14 6 C13.01 5.67 12.02 5.34 11 5 Z " fill="#FFFFFF" transform="translate(253,277)"/>
<path d="M0 0 C2.41481356 1.97575655 3.89214521 3.6297156 4.3984375 6.7734375 C4.46818433 10.86060165 4.41217524 13.10872719 2.25 16.6875 C-1.4295365 20.05164766 -4.97004479 19.96416209 -9.71484375 19.91015625 C-12.75641514 19.60546456 -14.58725207 18.61043013 -16.9375 16.6875 C-19.61959911 12.66435134 -19.62593415 9.41530081 -18.9375 4.6875 C-14.76712172 -2.21519508 -7.12969238 -3.18560723 0 0 Z M-8.9375 3.6875 C-10.46241998 6.73733996 -10.17312548 9.3298369 -9.9375 12.6875 C-8.58320159 14.63119738 -8.58320159 14.63119738 -6.9375 15.6875 C-4.49173173 12.01884759 -4.70142746 10.01549657 -4.9375 5.6875 C-5.2675 5.0275 -5.5975 4.3675 -5.9375 3.6875 C-6.9275 3.6875 -7.9175 3.6875 -8.9375 3.6875 Z " fill="#FFFFFF" transform="translate(322.9375,278.3125)"/>
<path d="M0 0 C2.96912882 1.38980498 4.69657028 2.69657028 7 5 C7.66609194 9.8795107 8.03922253 14.49491909 5.1875 18.625 C0.69830727 21.44677828 -3.84511864 21.6586305 -9 21 C-14.46341463 18.07317073 -14.46341463 18.07317073 -16 15 C-16.34708476 9.70695745 -16.51351894 6.26641586 -13 2 C-8.78493797 -0.56139164 -4.80763015 -0.57519861 0 0 Z M-6 5 C-7.29616272 11.28851034 -7.29616272 11.28851034 -5 17 C-4.01 16.34 -3.02 15.68 -2 15 C-1.63637182 12.79274927 -1.63637182 12.79274927 -1.8125 10.375 C-1.83957031 9.55773437 -1.86664063 8.74046875 -1.89453125 7.8984375 C-1.92933594 7.27195313 -1.96414063 6.64546875 -2 6 C-3.32 5.67 -4.64 5.34 -6 5 Z " fill="#FFFFFF" transform="translate(299,229)"/>
<path d="M0 0 C15.03200321 -0.48928763 15.03200321 -0.48928763 19.9375 3.625 C21.80011389 7.78848987 21.50143555 11.93854275 20.4375 16.3125 C17.47602503 19.78901409 13.74294355 20.85604006 9.3515625 21.21875 C6.87628219 21.24711997 4.46350258 21.24540639 2 21 C-0.77917604 18.22082396 0.01830965 10.84567688 -0.0625 7.11328125 C-0.0625 4.74128515 -0.04541224 2.371528 0 0 Z M10 5 C8.82428549 8.67410785 8.92633254 12.16929183 9 16 C9.66 16 10.32 16 11 16 C12.81502739 12.26317891 13.33059914 9.99179743 12 6 C11.34 5.67 10.68 5.34 10 5 Z " fill="#FFFFFF" transform="translate(210,229)"/>
<path d="M0 0 C3.96 0 7.92 0 12 0 C12.84003448 2.7481128 13.67222151 5.49819581 14.5 8.25 C14.73847656 9.02730469 14.97695313 9.80460938 15.22265625 10.60546875 C15.56103516 11.73662109 15.56103516 11.73662109 15.90625 12.890625 C16.11572266 13.58188477 16.32519531 14.27314453 16.54101562 14.98535156 C17 17 17 17 17 21 C14.36 21 11.72 21 9 21 C8.67 20.01 8.34 19.02 8 18 C5.69 18 3.38 18 1 18 C0.67 18.99 0.34 19.98 0 21 C-1.98 21 -3.96 21 -6 21 C-5.37942343 18.43635601 -4.75370801 15.87415074 -4.125 13.3125 C-3.95097656 12.59126953 -3.77695312 11.87003906 -3.59765625 11.12695312 C-3.42363281 10.42119141 -3.24960937 9.71542969 -3.0703125 8.98828125 C-2.83465576 8.02208862 -2.83465576 8.02208862 -2.59423828 7.03637695 C-1.89397594 4.63666941 -0.92839971 2.32099927 0 0 Z M4 8 C3.67 9.32 3.34 10.64 3 12 C3.99 11.67 4.98 11.34 6 11 C5.34 10.01 4.68 9.02 4 8 Z " fill="#FFFFFF" transform="translate(359,229)"/>
<path d="M0 0 C3.96 0 7.92 0 12 0 C14.81627358 6.83952155 16.44761232 13.77754385 18 21 C15.36 21 12.72 21 10 21 C9.67 19.68 9.34 18.36 9 17 C6.36 17 3.72 17 1 17 C0.67 18.32 0.34 19.64 0 21 C-1.65 21 -3.3 21 -5 21 C-4.3900874 16.01155691 -3.36525565 11.39844654 -1.9375 6.5625 C-1.57527344 5.32628906 -1.21304688 4.09007812 -0.83984375 2.81640625 C-0.56269531 1.88699219 -0.28554687 0.95757812 0 0 Z M4 9 C3.67 9.99 3.34 10.98 3 12 C3.99 12 4.98 12 6 12 C5.67 11.01 5.34 10.02 5 9 C4.67 9 4.34 9 4 9 Z " fill="#FFFFFF" transform="translate(113,229)"/>
<path d="M0 0 C-0.63164062 0.34289062 -1.26328125 0.68578125 -1.9140625 1.0390625 C-14.52390265 8.41600068 -23.93723479 18.45680026 -31.140625 31.078125 C-35.29205085 37.60179419 -41.46660084 42.99109356 -49 45 C-59.09274556 46.04773574 -66.90319044 44.52856046 -75.25 38.75 C-80.19612128 33.80387872 -84.63483729 29.30325421 -85 22 C-84.2265625 22.99 -84.2265625 22.99 -83.4375 24 C-82.633125 24.99 -81.82875 25.98 -81 27 C-80.51402344 27.639375 -80.02804688 28.27875 -79.52734375 28.9375 C-74.14108746 35.66077026 -68.77075386 39.3712588 -60.1171875 40.51171875 C-52.72372228 40.96880415 -46.6911131 40.47856486 -40.75 35.62890625 C-40.1725 35.09136719 -39.595 34.55382812 -39 34 C-38.113125 33.2575 -37.22625 32.515 -36.3125 31.75 C-34.27412668 29.32598849 -32.8661742 27.11119291 -31.3125 24.375 C-25.83899749 15.07281012 -19.22195345 8.30562566 -10.0625 2.75 C-9.08615601 2.15723267 -9.08615601 2.15723267 -8.09008789 1.55249023 C-3.39642872 -1.13214291 -3.39642872 -1.13214291 0 0 Z " fill="#DADADA" transform="translate(209,98)"/>
<path d="M0 0 C4.17189634 1.48609294 7.62853826 3.55302175 11.3125 6 C12.38113281 6.70125 13.44976562 7.4025 14.55078125 8.125 C15.76314453 9.053125 15.76314453 9.053125 17 10 C17 10.66 17 11.32 17 12 C17.66 12 18.32 12 19 12 C20.515625 13.65234375 20.515625 13.65234375 22.25 15.9375 C22.87519531 16.75734375 23.50039063 17.5771875 24.14453125 18.421875 C25.85051692 20.7922972 27.39797351 23.2073861 28.9375 25.6875 C33.11645559 32.07294414 39.0329486 36.03113438 46 39 C55.10225454 40.1339509 63.85144162 39.37343955 72 35 C74.91790525 32.7495803 74.91790525 32.7495803 77 30 C77.86625 29.030625 78.7325 28.06125 79.625 27.0625 C81.88795568 24.1444782 83.48229061 21.35493654 85 18 C85.33 18 85.66 18 86 18 C85.86299969 25.53501722 83.15681127 29.61377547 78 35 C70.06762101 42.40140839 61.89573837 44.61872579 51.15234375 44.35546875 C46.53356329 43.83463973 42.97376297 42.34595645 39 40 C38.37867188 39.64164063 37.75734375 39.28328125 37.1171875 38.9140625 C35.4375 37.875 35.4375 37.875 33 36 C33 35.34 33 34.68 33 34 C32.01 33.67 31.02 33.34 30 33 C28.7109375 31.06640625 28.7109375 31.06640625 27.375 28.5625 C22.02829019 19.34041084 14.82581931 12.53476777 6.48046875 6.0078125 C4.15684562 4.1269585 2.07066014 2.15271427 0 0 Z " fill="#DBDBDB" transform="translate(263,99)"/>
<path d="M0 0 C4.95 0 9.9 0 15 0 C15.33 1.65 15.66 3.3 16 5 C14.02 5.33 12.04 5.66 10 6 C10 6.66 10 7.32 10 8 C11.65 8 13.3 8 15 8 C15 9.32 15 10.64 15 12 C13.35 12.33 11.7 12.66 10 13 C10.33 13.66 10.66 14.32 11 15 C12.65 15 14.3 15 16 15 C16.33 16.32 16.66 17.64 17 19 C13.26692409 21.48871728 9.33596825 21.72117747 5 21 C2.28548008 19.12071698 1.24784101 17.93918698 0.40625 14.75 C-0.31838774 9.84475993 -0.05440303 4.95067611 0 0 Z " fill="#FFFFFF" transform="translate(235,229)"/>
<path d="M0 0 C4.95 0 9.9 0 15 0 C15.33 1.65 15.66 3.3 16 5 C14.02 5.33 12.04 5.66 10 6 C10 6.66 10 7.32 10 8 C11.65 8 13.3 8 15 8 C15 9.32 15 10.64 15 12 C13.35 12.33 11.7 12.66 10 13 C10.33 13.66 10.66 14.32 11 15 C12.65 15 14.3 15 16 15 C16.33 16.32 16.66 17.64 17 19 C13.26692409 21.48871728 9.33596825 21.72117747 5 21 C2.28548008 19.12071698 1.24784101 17.93918698 0.40625 14.75 C-0.31838774 9.84475993 -0.05440303 4.95067611 0 0 Z " fill="#FFFFFF" transform="translate(181,229)"/>
<path d="M0 0 C1.39456452 0.00667256 2.78911118 0.01863093 4.18359375 0.03515625 C4.89451172 0.03966797 5.60542969 0.04417969 6.33789062 0.04882812 C8.09899388 0.06064761 9.86005411 0.07858362 11.62109375 0.09765625 C11.95109375 1.74765625 12.28109375 3.39765625 12.62109375 5.09765625 C10.64109375 5.42765625 8.66109375 5.75765625 6.62109375 6.09765625 C6.62109375 6.75765625 6.62109375 7.41765625 6.62109375 8.09765625 C7.94109375 8.09765625 9.26109375 8.09765625 10.62109375 8.09765625 C10.95109375 9.41765625 11.28109375 10.73765625 11.62109375 12.09765625 C9.97109375 12.75765625 8.32109375 13.41765625 6.62109375 14.09765625 C6.62109375 14.75765625 6.62109375 15.41765625 6.62109375 16.09765625 C8.27109375 15.76765625 9.92109375 15.43765625 11.62109375 15.09765625 C11.95109375 16.41765625 12.28109375 17.73765625 12.62109375 19.09765625 C8.92801158 21.55971103 5.90792497 21.66808137 1.62109375 21.09765625 C-1.61503979 19.3551228 -2.2028594 18.62579681 -3.37890625 15.09765625 C-3.62993922 12.72678927 -3.83300372 10.35064282 -4.00390625 7.97265625 C-4.09929687 6.71195312 -4.1946875 5.45125 -4.29296875 4.15234375 C-4.32132813 3.14429688 -4.3496875 2.13625 -4.37890625 1.09765625 C-3.37890625 0.09765625 -3.37890625 0.09765625 0 0 Z " fill="#FFFFFF" transform="translate(147.37890625,276.90234375)"/>
<path d="M0 0 C4.95 0 9.9 0 15 0 C15.33 1.65 15.66 3.3 16 5 C15.360625 5.12375 14.72125 5.2475 14.0625 5.375 C13.381875 5.58125 12.70125 5.7875 12 6 C11.67 6.66 11.34 7.32 11 8 C12.32 8 13.64 8 15 8 C15 9.32 15 10.64 15 12 C13.35 12.33 11.7 12.66 10 13 C10.33 13.66 10.66 14.32 11 15 C12.65 15 14.3 15 16 15 C16.33 16.32 16.66 17.64 17 19 C13.33755697 21.34396354 10.27605847 21.52512999 6 21 C3.34433888 19.00437161 1.36136314 17.40227532 0.50756836 14.08911133 C0.28595283 11.94380242 0.20484395 9.8439307 0.1875 7.6875 C0.14979492 6.57665039 0.14979492 6.57665039 0.11132812 5.44335938 C0.05281557 3.62947031 0.02345651 1.81468097 0 0 Z " fill="#FFFFFF" transform="translate(61,229)"/>
<path d="M0 0 C4.95 0 9.9 0 15 0 C15.33 1.65 15.66 3.3 16 5 C15.360625 5.12375 14.72125 5.2475 14.0625 5.375 C13.381875 5.58125 12.70125 5.7875 12 6 C11.67 6.66 11.34 7.32 11 8 C12.32 8 13.64 8 15 8 C15 9.32 15 10.64 15 12 C13.35 12.33 11.7 12.66 10 13 C10.33 13.66 10.66 14.32 11 15 C12.65 15 14.3 15 16 15 C16.33 16.32 16.66 17.64 17 19 C13.33755697 21.34396354 10.27605847 21.52512999 6 21 C3.34433888 19.00437161 1.36136314 17.40227532 0.50756836 14.08911133 C0.28595283 11.94380242 0.20484395 9.8439307 0.1875 7.6875 C0.14979492 6.57665039 0.14979492 6.57665039 0.11132812 5.44335938 C0.05281557 3.62947031 0.02345651 1.81468097 0 0 Z " fill="#FFFFFF" transform="translate(233,277)"/>
<path d="M0 0 C6.27 0 12.54 0 19 0 C19.33 2.31 19.66 4.62 20 7 C18.35 7.33 16.7 7.66 15 8 C14.34 12.29 13.68 16.58 13 21 C10.69 21 8.38 21 6 21 C5.67 16.38 5.34 11.76 5 7 C3.35 7 1.7 7 0 7 C0 4.69 0 2.38 0 0 Z " fill="#FFFFFF" transform="translate(158,229)"/>
<path d="M0 0 C4.95 0 9.9 0 15 0 C15.33 1.65 15.66 3.3 16 5 C14.02 5.33 12.04 5.66 10 6 C10 6.66 10 7.32 10 8 C11.65 8 13.3 8 15 8 C15 9.32 15 10.64 15 12 C13.02 12.33 11.04 12.66 9 13 C9 15.64 9 18.28 9 21 C6.66705225 21.04241723 4.33297433 21.04092937 2 21 C-0.77917604 18.22082396 0.01830965 10.84567688 -0.0625 7.11328125 C-0.0625 4.74209598 -0.03387062 2.37094335 0 0 Z " fill="#FFFFFF" transform="translate(264,229)"/>
<path d="M0 0 C2.99266756 1.35790643 5.16856951 2.96125059 7.625 5.125 C11.66652421 8.21646441 14.6653729 8.6654795 19.6796875 8.328125 C25.41043981 7.51771558 29.31649306 5.3453621 34 2 C33.9375 4.75 33.9375 4.75 33 8 C27.66629096 12.82573675 21.67825783 12.75117271 14.69140625 12.60546875 C9.13055448 11.69337137 5.79559845 9.03218046 2 5 C1.48050781 5.40992188 0.96101563 5.81984375 0.42578125 6.2421875 C-0.27160156 6.78101563 -0.96898437 7.31984375 -1.6875 7.875 C-2.37199219 8.40867188 -3.05648437 8.94234375 -3.76171875 9.4921875 C-10.32738716 13.91513341 -16.41826362 13.31277242 -24 12 C-26.7984459 10.97033503 -27.83313418 10.16686582 -30 8 C-30.875 5.25 -30.875 5.25 -31 3 C-30.58492187 3.3609375 -30.16984375 3.721875 -29.7421875 4.09375 C-24.19189873 8.2738838 -19.22133778 8.79476259 -12.36328125 8.56640625 C-7.46377586 7.74128629 -4.29541817 5.66579658 -1 2 C-0.67 1.34 -0.34 0.68 0 0 Z " fill="#DADADA" transform="translate(232,179)"/>
<path d="M0 0 C4.29 0 8.58 0 13 0 C13.30173864 13.4273696 13.30173864 13.4273696 11 19 C7.29873141 21.46751239 5.37776468 21.30721156 1 21 C-1.4375 20 -1.4375 20 -3 19 C-2.67 17.68 -2.34 16.36 -2 15 C-0.35 15 1.3 15 3 15 C2.67 12.03 2.34 9.06 2 6 C1.01 5.67 0.02 5.34 -1 5 C-0.67 3.35 -0.34 1.7 0 0 Z " fill="#FFFFFF" transform="translate(337,229)"/>
<path d="M0 0 C3.63 0 7.26 0 11 0 C10.67 4.62 10.34 9.24 10 14 C11.65 14.33 13.3 14.66 15 15 C14.34 16.98 13.68 18.96 13 21 C9.37 21 5.74 21 2 21 C0.79556805 13.94546999 -0.28100502 7.16562789 0 0 Z " fill="#FFFFFF" transform="translate(81,229)"/>
<path d="M0 0 C3.63 0 7.26 0 11 0 C11.07822869 5.16309352 11.04225175 9.91902274 10 15 C11.98 15 13.96 15 16 15 C15.34 16.98 14.68 18.96 14 21 C10.04 21 6.08 21 2 21 C1.34 14.07 0.68 7.14 0 0 Z " fill="#FFFFFF" transform="translate(163,277)"/>
<path d="M0 0 C1.37478516 0.01740234 1.37478516 0.01740234 2.77734375 0.03515625 C3.69644531 0.04417969 4.61554688 0.05320312 5.5625 0.0625 C6.27277344 0.07410156 6.98304688 0.08570313 7.71484375 0.09765625 C7.84297492 6.78895074 7.79842445 13.47577417 6.71484375 20.09765625 C5.71484375 21.09765625 5.71484375 21.09765625 2.15234375 21.16015625 C1.01796875 21.13953125 -0.11640625 21.11890625 -1.28515625 21.09765625 C-1.64807771 17.78605342 -1.99902357 14.47329137 -2.34765625 11.16015625 C-2.45142578 10.21462891 -2.55519531 9.26910156 -2.66210938 8.29492188 C-2.75556641 7.39580078 -2.84902344 6.49667969 -2.9453125 5.5703125 C-3.03433838 4.73765869 -3.12336426 3.90500488 -3.21508789 3.04711914 C-3.23821045 2.40379639 -3.26133301 1.76047363 -3.28515625 1.09765625 C-2.28515625 0.09765625 -2.28515625 0.09765625 0 0 Z " fill="#FFFFFF" transform="translate(221.28515625,276.90234375)"/>
<path d="M0 0 C3.4375 1.75 3.4375 1.75 6 4 C6.78375 4.680625 7.5675 5.36125 8.375 6.0625 C10 8 10 8 10 11 C11.32 11 12.64 11 14 11 C14.309375 9.9171875 14.309375 9.9171875 14.625 8.8125 C16.48134044 5.01544 18.59467803 3.5018692 22 1 C24.82716095 0.05761302 26.63176123 -0.13465647 29.5625 -0.125 C30.34753906 -0.12757813 31.13257813 -0.13015625 31.94140625 -0.1328125 C34 0 34 0 36 1 C36 1.66 36 2.32 36 3 C35.10796875 3.20496094 34.2159375 3.40992188 33.296875 3.62109375 C32.12640625 3.89050781 30.9559375 4.15992188 29.75 4.4375 C28.58984375 4.70433594 27.4296875 4.97117187 26.234375 5.24609375 C23.81650239 5.80968 21.40556696 6.38669951 19 7 C19 7.66 19 8.32 19 9 C18.34 9 17.68 9 17 9 C16.34 10.98 15.68 12.96 15 15 C12.75 14.875 12.75 14.875 10 14 C8.65668346 12.00669158 7.32405988 10.00615134 6 8 C0.50783862 4.05690978 -6.45695207 3.82516183 -13 3 C-13 2.34 -13 1.68 -13 1 C-9.05377066 -0.97311467 -4.30105966 -0.4440981 0 0 Z " fill="#DADADA" transform="translate(221,5)"/>
<path d="M0 0 C0.33 0 0.66 0 1 0 C1.34097077 3.58019312 1.15644133 5.68031554 -0.4375 8.9375 C-9.24650133 19.46533085 -21.83649336 25.04598473 -35 28 C-34.67 26.35 -34.34 24.7 -34 23 C-33.03320312 22.70867187 -32.06640625 22.41734375 -31.0703125 22.1171875 C-23.03979662 19.61914929 -15.9745754 16.82543298 -9 12 C-7.576875 11.071875 -7.576875 11.071875 -6.125 10.125 C-3.172973 7.172973 -1.65041749 3.79872628 0 0 Z " fill="#D9D9D9" transform="translate(277,62)"/>
<path d="M0 0 C5.13966196 2.2905895 8.24258239 5.47584352 10.75 10.5 C11.43583927 12.94416544 11.64339488 14.9414771 11.75 17.5 C10.45766147 15.5614922 9.22302859 13.58267939 8.0625 11.5625 C5.23213772 7.81418238 2.91700245 6.58350123 -1.25 4.5 C-1.91 4.17 -2.57 3.84 -3.25 3.5 C-5.18359586 3.35148156 -7.12342097 3.27869167 -9.0625 3.25 C-10.10019531 3.22421875 -11.13789063 3.1984375 -12.20703125 3.171875 C-15.66434825 3.5446794 -17.48739236 4.42067076 -20.25 6.5 C-21.59689915 9.07099402 -21.59689915 9.07099402 -22.25 11.5 C-22.58 11.5 -22.91 11.5 -23.25 11.5 C-23.73877805 5.14588529 -23.73877805 5.14588529 -21.5 2.1875 C-14.79066971 -2.84449772 -7.80311641 -2.66390379 0 0 Z " fill="#DBDBDB" transform="translate(333.25,92.5)"/>
<path d="M0 0 C2.5625 1.625 2.5625 1.625 4.5625 3.625 C4.1875 5.75 4.1875 5.75 3.5625 7.625 C3.129375 7.150625 2.69625 6.67625 2.25 6.1875 C-1.20024017 2.99283317 -5.35293269 3.28921736 -9.80078125 3.34765625 C-15.32909445 3.9291529 -19.07451321 6.15440899 -22.8125 10.1875 C-25.02285156 14.86324369 -25.74809248 19.5270128 -26.4375 24.625 C-26.7675 24.625 -27.0975 24.625 -27.4375 24.625 C-28.46999995 12.08203769 -28.46999995 12.08203769 -24.8125 7.0625 C-18.14037452 -0.41406615 -9.6407104 -3.85628416 0 0 Z " fill="#DADADA" transform="translate(154.4375,92.375)"/>
<path d="M0 0 C1.86513897 1.86513897 3.71982023 3.73737683 5.5625 5.625 C9.10154165 9.073297 10.96213195 9.1782313 15.8125 9.25 C16.85019531 9.27578125 17.88789063 9.3015625 18.95703125 9.328125 C23.38281333 8.85089048 25.99606466 7.2116461 28.8125 3.8125 C29.204375 3.214375 29.59625 2.61625 30 2 C31.80230168 5.82989106 32.19622241 8.78121808 32 13 C31.67 13 31.34 13 31 13 C31 11.35 31 9.7 31 8 C30.34 8 29.68 8 29 8 C28.67 8.99 28.34 9.98 28 11 C24.04860257 14.55625769 19.85756268 14.50769071 14.7890625 14.34375 C9.8287333 13.7323929 5.80788913 12.25345954 2.62109375 8.28125 C0.88089104 5.41931384 0 3.37036893 0 0 Z " fill="#DCDCDC" transform="translate(191,122)"/>
<path d="M0 0 C0.66 0 1.32 0 2 0 C1.38303993 6.2929927 0.23919493 9.98472457 -4.5 14.25 C-9.3534087 17.64738609 -14.27374892 17.50761479 -20 17 C-24.11275909 15.45771534 -25.55780938 14.66328593 -28 11 C-27.67 10.01 -27.34 9.02 -27 8 C-25.96359375 8.97646484 -25.96359375 8.97646484 -24.90625 9.97265625 C-21.45007251 12.38361877 -19.66624414 12.51050661 -15.5 12.4375 C-14.3965625 12.43621094 -13.293125 12.43492187 -12.15625 12.43359375 C-8.69156484 11.95762834 -6.79719137 11.06317662 -4 9 C-1.91618114 6.09753802 -0.65066851 3.51360995 0 0 Z " fill="#DADADA" transform="translate(276,119)"/>
<path d="M0 0 C0.55558594 0.7425 1.11117187 1.485 1.68359375 2.25 C9.33200562 11.33007076 20.24727139 15.7220327 31 20 C31 21.65 31 23.3 31 25 C30.67 24.34 30.34 23.68 30 23 C27.98856598 22.30457611 27.98856598 22.30457611 25.5625 21.75 C15.66632774 18.9265557 5.77230275 12.65845413 0 4 C0 2.68 0 1.36 0 0 Z " fill="#DBDBDB" transform="translate(193,65)"/>
<path d="M0 0 C0 1.32 0 2.64 0 4 C-3 5 -3 5 -6.3125 5.3125 C-11.88364551 6.35118815 -14.82101235 8.46076613 -18.25 12.9375 C-20.997863 18.15843971 -21.33956799 24.22121992 -22 30 C-22.33 30 -22.66 30 -23 30 C-23.56133589 21.23068605 -23.90464504 13.96006468 -18 7 C-12.47795295 1.54726735 -7.76954679 0 0 0 Z " fill="#DADADA" transform="translate(266,10)"/>
<path d="M0 0 C4.72183015 7.93192811 2.50747535 22.58838926 0.46777344 31.26367188 C-1.80690025 38.02089417 -5.66467265 42.83233632 -12 46 C-15.4375 46.3125 -15.4375 46.3125 -18 46 C-18.33 45.34 -18.66 44.68 -19 44 C-18.11248047 43.65388672 -18.11248047 43.65388672 -17.20703125 43.30078125 C-10.14967064 40.38803698 -5.56002881 36.94205619 -2 30 C-0.94293307 26.6443787 -0.80387959 23.42734809 -0.68359375 19.921875 C-0.64169922 18.76171875 -0.59980469 17.6015625 -0.55664062 16.40625 C-0.51732422 15.1996875 -0.47800781 13.993125 -0.4375 12.75 C-0.39431641 11.52796875 -0.35113281 10.3059375 -0.30664062 9.046875 C-0.20062645 6.0313608 -0.09856064 3.01576552 0 0 Z " fill="#DDDDDD" transform="translate(226,138)"/>
<path d="M0 0 C0.33 0 0.66 0 1 0 C1.3125 2.6875 1.3125 2.6875 1 6 C-1.375 8.875 -1.375 8.875 -4 11 C-4.66 11 -5.32 11 -6 11 C-5.98839844 11.86882812 -5.97679687 12.73765625 -5.96484375 13.6328125 C-5.95582031 14.78523438 -5.94679687 15.93765625 -5.9375 17.125 C-5.92589844 18.26195313 -5.91429687 19.39890625 -5.90234375 20.5703125 C-6 24 -6 24 -6.5 26.78125 C-7.03399503 30.21884299 -7.11304442 33.4519619 -7.09765625 36.9296875 C-7.09443359 38.21875 -7.09121094 39.5078125 -7.08789062 40.8359375 C-7.07953733 42.18229236 -7.07107241 43.52864652 -7.0625 44.875 C-7.0574783 46.24479004 -7.05291657 47.61458185 -7.04882812 48.984375 C-7.03707254 52.3229619 -7.02063964 55.66145815 -7 59 C-9.86158862 56.13841138 -9.25851539 54.1516575 -9.265625 50.1484375 C-9.26753845 49.45674469 -9.2694519 48.76505188 -9.27142334 48.05239868 C-9.2727873 46.57789754 -9.26907619 45.10338447 -9.26074219 43.62890625 C-9.25027164 41.43199466 -9.26050881 39.23594454 -9.2734375 37.0390625 C-9.28375709 29.72308971 -9.03077746 22.44536798 -8.296875 15.1640625 C-8.17151367 13.88225098 -8.04615234 12.60043945 -7.91699219 11.27978516 C-6.80402693 7.29906757 -5.35847688 6.27329936 -2 4 C-0.68834743 1.88339573 -0.68834743 1.88339573 0 0 Z " fill="#DCDCDC" transform="translate(252,105)"/>
<path d="M0 0 C0.66 0.33 1.32 0.66 2 1 C-1.51747377 6.43609583 -6.54964494 8.8412715 -12 12 C-17.11582104 15.26541768 -18.21823885 18.37338583 -20 24 C-20.33 24 -20.66 24 -21 24 C-21.4926662 20.05867043 -21.8021341 17.39659594 -19.79296875 13.8984375 C-15.38754932 8.55415819 -10.07972881 5.19771331 -4 2 C-3.28199219 1.59523438 -2.56398437 1.19046875 -1.82421875 0.7734375 C-1.22222656 0.51820312 -0.62023437 0.26296875 0 0 Z " fill="#D9D9D9" transform="translate(216,97)"/>
<path d="M0 0 C0.33 0 0.66 0 1 0 C1.28788265 5.56573129 1.24860472 9.23537975 -2 14 C-5.28697324 16.83874961 -7.31104234 17.90497136 -11.625 18.5 C-15.48679896 17.92788164 -16.63681688 17.02487439 -19 14 C-18.67 13.01 -18.34 12.02 -18 11 C-17.34 11.66 -16.68 12.32 -16 13 C-11.6086432 13.43193673 -9.12024069 13.57256747 -5.1875 11.5625 C-2.20050541 8.06344919 -1.15642897 4.40007121 0 0 Z " fill="#D9D9D9" transform="translate(163,100)"/>
<path d="M0 0 C0.7425 0.763125 1.485 1.52625 2.25 2.3125 C6.27189449 6.53177628 6.27189449 6.53177628 11.578125 8.29296875 C12.45984375 8.25816406 13.3415625 8.22335938 14.25 8.1875 C15.58804687 8.14689453 15.58804687 8.14689453 16.953125 8.10546875 C17.62859375 8.07066406 18.3040625 8.03585938 19 8 C19.33 6.35 19.66 4.7 20 3 C20.66 3 21.32 3 22 3 C21.51834131 9.38197767 21.51834131 9.38197767 19.375 11.9375 C15.9964056 13.44897644 13.67009386 13.44294236 10 13 C5.20475569 10.55536565 2.59602275 7.69281036 0 3 C0 2.01 0 1.02 0 0 Z " fill="#DADADA" transform="translate(306,105)"/>
<path d="M0 0 C7.29987314 0.03379571 11.74915933 1.92735528 17 7 C20.91214696 11.61432718 21.59618068 15.14461985 22 21 C20.56756288 18.85134432 19.22476296 16.73190841 17.9375 14.5 C17.42509766 13.61828125 17.42509766 13.61828125 16.90234375 12.71875 C16 11 16 11 15 8 C11.44564477 6.17204588 7.92550255 5.58464932 4 5 C2.66262906 4.68325425 1.32711192 4.35729936 0 4 C0 2.68 0 1.36 0 0 Z " fill="#DADADA" transform="translate(201,10)"/>
<path d="M0 0 C8.7373754 1.23445487 17.58865689 7.12613172 23 14 C23.875 17.375 23.875 17.375 24 20 C22.5 18.625 22.5 18.625 21 17 C21 16.34 21 15.68 21 15 C20.45085937 14.73832031 19.90171875 14.47664063 19.3359375 14.20703125 C12.40935871 10.62791278 5.74525077 6.27941963 0 1 C0 0.67 0 0.34 0 0 Z " fill="#DADADA" transform="translate(249,97)"/>
<path d="M0 0 C2.93210987 1.32143443 3.86720558 2.41819623 6 5 C6.875 8.3125 6.875 8.3125 7 11 C6.2575 10.21625 5.515 9.4325 4.75 8.625 C1.83759781 5.84497972 -0.11873415 4.03974505 -4.21875 3.953125 C-4.9715625 4.05109375 -5.724375 4.1490625 -6.5 4.25 C-7.62921875 4.38148437 -7.62921875 4.38148437 -8.78125 4.515625 C-11.1101584 5.02404866 -12.92229716 5.84781933 -15 7 C-14.6875 4.625 -14.6875 4.625 -14 2 C-9.52785542 -0.98142972 -5.24042495 -0.72513726 0 0 Z " fill="#DADADA" transform="translate(267,48)"/>
<path d="M0 0 C0.94746094 -0.01675781 1.89492187 -0.03351562 2.87109375 -0.05078125 C5.93375309 0.36261109 7.28868559 1.27520529 9.5625 3.3125 C9.2325 4.3025 8.9025 5.2925 8.5625 6.3125 C8.046875 5.9825 7.53125 5.6525 7 5.3125 C3.62406926 3.92750277 1.18834884 3.93741219 -2.4375 4.3125 C-6.44807061 6.27994973 -8.06015266 7.42058811 -9.8125 11.5625 C-10.01875 12.47 -10.225 13.3775 -10.4375 14.3125 C-10.7675 14.3125 -11.0975 14.3125 -11.4375 14.3125 C-11.73147316 9.31495633 -11.5354156 6.32831652 -8.4375 2.3125 C-5.11533762 0.09772508 -3.88716677 0.01582293 0 0 Z " fill="#D9D9D9" transform="translate(207.4375,47.6875)"/>
<path d="M0 0 C1.875 0.75 1.875 0.75 2.875 2.75 C3.0625 6.25 3.0625 6.25 2.875 9.75 C2.215 10.41 1.555 11.07 0.875 11.75 C-1.6875 11.5 -1.6875 11.5 -4.125 10.75 C-5.64650158 7.70699684 -5.36399393 5.095915 -5.125 1.75 C-2.125 -0.25 -2.125 -0.25 0 0 Z " fill="#FDFDFD" transform="translate(234.125,22.25)"/>
<path d="M0 0 C4.70588235 0.70588235 4.70588235 0.70588235 6 2 C6.1328125 3.8125 6.1328125 3.8125 6.125 6 C6.12757813 6.721875 6.13015625 7.44375 6.1328125 8.1875 C6 10 6 10 5 11 C3.33382885 11.04063832 1.66611905 11.042721 0 11 C-1.82941851 7.23355012 -2.23162684 5.03077875 -1 1 C-0.67 0.67 -0.34 0.34 0 0 Z " fill="#FEFEFE" transform="translate(231,160)"/>
<path d="M0 0 C2.375 0.1875 2.375 0.1875 5 1 C6.59642719 3.68490027 7.12740282 5.21434929 6.625 8.3125 C6.41875 8.869375 6.2125 9.42625 6 10 C1.25 11.125 1.25 11.125 -1 10 C-1.75 6.625 -1.75 6.625 -2 3 C-1.34 2.01 -0.68 1.02 0 0 Z " fill="#FDFDFD" transform="translate(231,123)"/>
<path d="M0 0 C0.66 0 1.32 0 2 0 C2.268125 0.59167969 2.53625 1.18335938 2.8125 1.79296875 C5.80086129 7.818842 8.81459542 11.2440032 15 14 C17.80740127 14.85166887 17.80740127 14.85166887 20 15 C18.8125 16.5625 18.8125 16.5625 17 18 C13.01012092 17.79000636 10.12231718 16.43693048 7 14 C3.4713193 9.57419709 0.84126825 5.66854558 0 0 Z " fill="#DDDDDD" transform="translate(240,166)"/>
<path d="M0 0 C0.8971875 0.99 0.8971875 0.99 1.8125 2 C6.44161669 4.90454381 10.67268974 4.33587245 16 4 C15 7 15 7 13.375 8.25 C9.87566247 9.35505396 7.52371339 8.9438518 4 8 C1.5625 5.625 1.5625 5.625 0 3 C0 2.01 0 1.02 0 0 Z " fill="#D9D9D9" transform="translate(248,56)"/>
<path d="M0 0 C0.33 0 0.66 0 1 0 C0.3956044 6.40659341 0.3956044 6.40659341 -1.25 8.875 C-3.62064996 10.39898926 -5.16629587 10.86819981 -8 11 C-11.3125 9.5625 -11.3125 9.5625 -14 8 C-14 7.34 -14 6.68 -14 6 C-13.39671875 6.04640625 -12.7934375 6.0928125 -12.171875 6.140625 C-6.97699408 6.46834155 -6.97699408 6.46834155 -2.5 4.125 C-0.97895603 2.08328039 -0.97895603 2.08328039 0 0 Z " fill="#D8D8D8" transform="translate(221,54)"/>
<path d="M0 0 C2.95562064 0.20151959 5.07037079 0.96252665 7.75 2.1875 C7.42 3.1775 7.09 4.1675 6.75 5.1875 C4.76432292 5.15494792 2.77864583 5.12239583 0.79296875 5.08984375 C-1.45305461 5.10486783 -1.45305461 5.10486783 -4.25 6.1875 C-3.18709328 0.26559111 -3.18709328 0.26559111 0 0 Z " fill="#DADADA" transform="translate(255.25,118.8125)"/>
<path d="M0 0 C0.33 1.32 0.66 2.64 1 4 C-2.3 4 -5.6 4 -9 4 C-9 2.68 -9 1.36 -9 0 C-5.52176885 -1.15941038 -3.54104422 -0.70820884 0 0 Z " fill="#DADADA" transform="translate(216,120)"/>
<path d="M0 0 C0.99 0.33 1.98 0.66 3 1 C2.38461538 6.53846154 2.38461538 6.53846154 0.4375 8.875 C-0.2740625 9.431875 -0.2740625 9.431875 -1 10 C-3.475 9.01 -3.475 9.01 -6 8 C-5.67 7.01 -5.34 6.02 -5 5 C-3.35 4.67 -1.7 4.34 0 4 C0 2.68 0 1.36 0 0 Z " fill="#D8D8D8" transform="translate(236,94)"/>
<path d="M0 0 C3.96 0 7.92 0 12 0 C12 0.99 12 1.98 12 3 C8.37 3 4.74 3 1 3 C0.67 2.01 0.34 1.02 0 0 Z " fill="#DDDDDD" transform="translate(227,86)"/>
<path d="M0 0 C0.33 0 0.66 0 1 0 C1.042721 1.66611905 1.04063832 3.33382885 1 5 C0 6 0 6 -2.5625 6.0625 C-3.7690625 6.0315625 -3.7690625 6.0315625 -5 6 C-5.33 4.35 -5.66 2.7 -6 1 C-4.7934375 1.0309375 -4.7934375 1.0309375 -3.5625 1.0625 C-1.06645115 1.29633621 -1.06645115 1.29633621 0 0 Z " fill="#DCDCDC" transform="translate(236,165)"/>
<path d="M0 0 C0.33 0 0.66 0 1 0 C1.125 2.375 1.125 2.375 1 5 C0.34 5.66 -0.32 6.32 -1 7 C-3.625 6.625 -3.625 6.625 -6 6 C-6.33 4.68 -6.66 3.36 -7 2 C-5.02 2 -3.04 2 -1 2 C-0.67 1.34 -0.34 0.68 0 0 Z " fill="#DBDBDB" transform="translate(236,27)"/>
<path d="M0 0 C0.042721 1.66611905 0.04063832 3.33382885 0 5 C-1 6 -1 6 -3.5625 6.0625 C-4.7690625 6.0315625 -4.7690625 6.0315625 -6 6 C-6.33 4.68 -6.66 3.36 -7 2 C-1.125 0 -1.125 0 0 0 Z " fill="#DCDCDC" transform="translate(237,68)"/>
<path d="M0 0 C0.33 0 0.66 0 1 0 C1.125 2.375 1.125 2.375 1 5 C0.34 5.66 -0.32 6.32 -1 7 C-1.99 7 -2.98 7 -4 7 C-4.33 8.32 -4.66 9.64 -5 11 C-5 8.69 -5 6.38 -5 4 C-4.0409375 3.8453125 -4.0409375 3.8453125 -3.0625 3.6875 C-2.381875 3.460625 -1.70125 3.23375 -1 3 C-0.67 2.01 -0.34 1.02 0 0 Z " fill="#DADADA" transform="translate(229,109)"/>
<path d="M0 0 C0.66 0 1.32 0 2 0 C1.67 1.32 1.34 2.64 1 4 C-3.75 5.125 -3.75 5.125 -6 4 C-6 3.01 -6 2.02 -6 1 C-4.7934375 1.0309375 -4.7934375 1.0309375 -3.5625 1.0625 C-1.06645115 1.29633621 -1.06645115 1.29633621 0 0 Z " fill="#D4D4D4" transform="translate(236,129)"/>
<path d="M0 0 C3.26460973 1.80412643 4.88929795 2.83394693 7 6 C6.67 6.99 6.34 7.98 6 9 C3.84526801 7.4198632 1.89353366 5.89353366 0 4 C0 2.68 0 1.36 0 0 Z " fill="#DDDDDD" transform="translate(242,96)"/>
<path d="M0 0 C0.66 0.33 1.32 0.66 2 1 C1.01 3.97 0.02 6.94 -1 10 C-1.66 10 -2.32 10 -3 10 C-2.88637738 8.5199159 -2.75877092 7.04089926 -2.625 5.5625 C-2.55539063 4.73878906 -2.48578125 3.91507812 -2.4140625 3.06640625 C-2.27742187 2.38449219 -2.14078125 1.70257813 -2 1 C-1.34 0.67 -0.68 0.34 0 0 Z " fill="#DFDFDF" transform="translate(229,94)"/>
<path d="M0 0 C0.33 0.99 0.66 1.98 1 3 C-0.875 6.1875 -0.875 6.1875 -3 9 C-3.33 9 -3.66 9 -4 9 C-4.25 6.75 -4.25 6.75 -4 4 C-2 1.6875 -2 1.6875 0 0 Z " fill="#DADADA" transform="translate(223,97)"/>
<path d="M0 0 C0.66 0 1.32 0 2 0 C1.8125 2.875 1.8125 2.875 1 6 C-1.5625 7.375 -1.5625 7.375 -4 8 C-2.68 5.36 -1.36 2.72 0 0 Z " fill="#DCDCDC" transform="translate(251,73)"/>
<path d="M0 0 C0.33 1.32 0.66 2.64 1 4 C-0.98 4.99 -0.98 4.99 -3 6 C-3.33 4.68 -3.66 3.36 -4 2 C-2.68 1.34 -1.36 0.68 0 0 Z " fill="#DBDBDB" transform="translate(228,70)"/>
<path d="M0 0 C3 1.8125 3 1.8125 6 4 C6 4.99 6 5.98 6 7 C4.125 6.875 4.125 6.875 2 6 C0.75 2.9375 0.75 2.9375 0 0 Z " fill="#DFDFDF" transform="translate(215,108)"/>
</svg>
