<?xml version="1.0" encoding="UTF-8"?>
<svg version="1.1" xmlns="http://www.w3.org/2000/svg" width="806" height="678">
<path d="M0 0 C5.6300792 4.91088973 10.70124187 10.10556732 14.8046875 16.38671875 C15.45953125 15.62488281 16.114375 14.86304687 16.7890625 14.078125 C31.86591496 -3.12100695 49.86769958 -12.76980889 72.7890625 -14.51953125 C73.45421875 -14.55046875 74.119375 -14.58140625 74.8046875 -14.61328125 C75.55234375 -14.66484375 76.3 -14.71640625 77.0703125 -14.76953125 C93.93154973 -15.4222243 111.92795231 -8.40048538 124.8046875 2.38671875 C129.08168269 6.45508003 129.41924889 9.70149928 129.8046875 15.38671875 C128.4846875 15.38671875 127.1646875 15.38671875 125.8046875 15.38671875 C126.1346875 16.08796875 126.4646875 16.78921875 126.8046875 17.51171875 C127.89513312 20.64674991 127.95791393 23.09235057 127.8046875 26.38671875 C125.1646875 26.38671875 122.5246875 26.38671875 119.8046875 26.38671875 C119.4746875 27.70671875 119.1446875 29.02671875 118.8046875 30.38671875 C118.27101563 30.23074219 117.73734375 30.07476562 117.1875 29.9140625 C105.15751821 26.77128179 97.27349515 30.04088425 86.8046875 35.984375 C82.1192283 38.74622676 77.85204018 41.74743249 73.8046875 45.38671875 C72.83402344 46.18529297 72.83402344 46.18529297 71.84375 47 C57.51042329 59.77535641 50.43774716 80.05334683 49.36132812 98.71679688 C49.30235352 99.8218457 49.30235352 99.8218457 49.2421875 100.94921875 C49.19900391 101.65884766 49.15582031 102.36847656 49.11132812 103.09960938 C48.29928761 117.80656533 49.0475188 132.50093719 49.6796875 147.19921875 C49.72381775 148.24754883 49.767948 149.29587891 49.81341553 150.37597656 C50.58798055 168.72796192 51.57735158 187.05955468 52.8046875 205.38671875 C53.49030762 205.51296631 54.17592773 205.63921387 54.88232422 205.76928711 C55.78225098 205.94081299 56.68217773 206.11233887 57.609375 206.2890625 C58.50124512 206.45656006 59.39311523 206.62405762 60.31201172 206.79663086 C67.55824181 208.51202147 72.53090548 214.6216596 76.8046875 220.38671875 C83.32467049 231.35048903 81.11896762 243.3184917 78.65625 255.171875 C77.93858462 257.88122642 77.09492904 259.93499366 75.8046875 262.38671875 C83.23157948 260.40937689 90.02074434 257.67358351 96.9296875 254.32421875 C97.93378662 253.83888672 98.93788574 253.35355469 99.97241211 252.85351562 C114.12652028 245.89466695 126.70914009 237.47833739 138.8046875 227.38671875 C140.21427734 226.2265625 140.21427734 226.2265625 141.65234375 225.04296875 C149.02034882 218.73071101 156.53132799 210.91668126 158.2109375 200.984375 C158.58019262 190.99910105 154.80324644 181.64918034 148.5546875 173.88671875 C139.3352187 164.40325635 126.70496934 160.38558772 113.7421875 160.07421875 C103.2673213 160.18171453 92.69528317 163.20474454 84.8046875 170.38671875 C84.4746875 171.37671875 84.1446875 172.36671875 83.8046875 173.38671875 C86.03632179 177.75700257 88.57116258 180.54530955 92.8828125 182.765625 C96.34617138 183.88488122 99.33866085 183.2277898 102.8046875 182.38671875 C103.47371094 182.2475 104.14273437 182.10828125 104.83203125 181.96484375 C106.96414335 181.49903256 106.96414335 181.49903256 109.8046875 180.38671875 C110.1346875 179.39671875 110.4646875 178.40671875 110.8046875 177.38671875 C114.91427517 178.83716146 118.23727495 180.89782627 121.8046875 183.38671875 C120.5555133 186.84597038 119.12940955 189.53365078 116.8046875 192.38671875 C117.7946875 193.04671875 118.7846875 193.70671875 119.8046875 194.38671875 C118.45416232 199.11355689 115.90390979 201.83570059 111.8046875 204.38671875 C104.32333826 207.90906606 95.24189217 209.66211449 87.1796875 207.38671875 C78.76297156 204.01400968 72.83124353 198.5333245 68.8359375 190.3984375 C65.19485665 179.76482638 68.05355622 165.99915842 72.5546875 155.94921875 C78.37269238 145.82158063 88.40325191 140.78603865 99.21484375 137.28125 C113.99232588 133.52963654 132.36089267 134.5445051 145.8046875 142.38671875 C146.90296875 143.01707031 146.90296875 143.01707031 148.0234375 143.66015625 C161.31193584 151.89720488 169.76961064 164.32899292 173.8046875 179.38671875 C175.71391059 199.85536634 171.07236368 221.35956164 158.234375 237.5859375 C134.8439255 264.5488833 97.68583499 282.6044663 63.8046875 291.38671875 C63.08168457 291.57588867 62.35868164 291.76505859 61.61376953 291.95996094 C56.59533563 293.25115319 51.99818589 294.38671875 46.8046875 294.38671875 C46.8046875 296.03671875 46.8046875 297.68671875 46.8046875 299.38671875 C48.06796875 299.52207031 49.33125 299.65742188 50.6328125 299.796875 C83.21750319 303.59687502 112.66459803 313.69069339 141.8046875 328.38671875 C142.56185059 328.76473633 143.31901367 329.14275391 144.09912109 329.53222656 C170.30648311 342.68319052 193.76630638 360.67427141 211.84765625 383.89453125 C213.39383816 385.86352138 214.98095635 387.70082842 216.6484375 389.5625 C220.3510823 393.85861015 223.19761049 398.60187645 226.1171875 403.44921875 C227.26654305 405.32185035 228.41628351 407.19424575 229.56640625 409.06640625 C231.48398571 412.20649134 233.38305946 415.35605538 235.26171875 418.51953125 C247.42204129 438.68977611 270.82910042 454.2066681 293.3046875 460.88671875 C309.83145886 464.87558123 327.67415202 463.23504221 343.8046875 458.38671875 C345.02285156 458.02449219 346.24101563 457.66226562 347.49609375 457.2890625 C365.54592466 451.33967689 380.99756334 441.42359436 392.8046875 426.38671875 C393.60648438 425.38640625 394.40828125 424.38609375 395.234375 423.35546875 C400.26103586 417.01044714 405.05122812 410.58930296 408.8046875 403.38671875 C409.18109375 402.67773438 409.5575 401.96875 409.9453125 401.23828125 C411.24349885 396.93066292 411.10186801 392.73561042 411.0546875 388.26171875 C411.04501953 387.31466064 411.03535156 386.36760254 411.02539062 385.3918457 C410.72132189 367.7239316 404.48995803 354.37470926 393.8046875 340.38671875 C393.2065625 339.49984375 392.6084375 338.61296875 391.9921875 337.69921875 C379.42865247 324.41776744 357.81157742 317.61762726 339.9375 316.046875 C325.24106437 315.664951 307.34242825 318.49722667 295.8046875 328.38671875 C292.36085988 332.04139296 289.9841419 335.29308406 289.546875 340.39453125 C290.04036008 348.27055305 291.94660039 354.14060675 296.8046875 360.38671875 C296.8046875 361.04671875 296.8046875 361.70671875 296.8046875 362.38671875 C297.37832031 362.65613281 297.95195313 362.92554688 298.54296875 363.203125 C300.85578626 364.41345955 302.87102041 365.80578767 304.9921875 367.32421875 C312.94843538 372.628384 319.36846907 374.14684239 328.8046875 372.38671875 C330.14155948 372.06787364 331.47632184 371.7393284 332.8046875 371.38671875 C332.42907119 366.31359877 332.42907119 366.31359877 329.9296875 362.01171875 C327.80899727 360.20755547 327.80899727 360.20755547 324.8046875 359.38671875 C325.29591203 351.25566014 326.15734991 343.3675096 327.8046875 335.38671875 C335.80932288 336.43948259 340.33579928 339.03084898 345.34765625 345.32421875 C350.91480965 353.80750012 349.43431923 362.95149829 347.50952148 372.42602539 C344.17561725 387.88092926 344.17561725 387.88092926 338.4921875 392.63671875 C337.93917969 393.11625 337.38617187 393.59578125 336.81640625 394.08984375 C328.57740551 399.40119956 316.07851748 398.58671961 306.76171875 396.8046875 C295.01398466 392.6076993 283.02390615 382.32515605 277.4296875 371.13671875 C271.28428232 355.61005345 273.04327766 335.84800741 279.23046875 320.52734375 C281.72467258 315.34558695 284.31943673 311.08705064 288.8046875 307.38671875 C289.6915625 306.56171875 290.5784375 305.73671875 291.4921875 304.88671875 C306.54268036 292.73201692 328.66221936 290.27263208 347.3203125 291.8515625 C370.17840614 294.28798721 392.98605279 304.30728575 407.8671875 322.01171875 C424.11348743 343.20111197 429.37014175 365.8251496 426.48388672 392.33300781 C422.39292104 422.22737916 405.46232248 446.20066635 382.45703125 465.33984375 C358.33882504 483.21711179 325.86474114 490.68419887 296.26953125 486.890625 C271.17339934 482.93826717 244.44983962 466.17506386 227.72265625 447 C225.93091457 444.52848747 224.35361868 442.01812138 222.8046875 439.38671875 C222.43424316 438.76104004 222.06379883 438.13536133 221.68212891 437.49072266 C219.96827783 434.59312652 218.2629608 431.6906971 216.56762695 428.78222656 C210.52071554 418.42133906 204.03494258 409.1656575 195.8046875 400.38671875 C194.54778784 398.97617003 193.29727118 397.55989486 192.0546875 396.13671875 C191.49136719 395.49347656 190.92804687 394.85023438 190.34765625 394.1875 C188.98462898 392.5967264 187.67174767 390.96328152 186.3671875 389.32421875 C183.13326131 385.61703507 179.57449509 382.53561685 175.8046875 379.38671875 C174.86238281 378.59136719 173.92007813 377.79601562 172.94921875 376.9765625 C167.81896255 372.42608078 167.81896255 372.42608078 161.8046875 369.38671875 C162.13082031 369.969375 162.45695313 370.55203125 162.79296875 371.15234375 C171.30033724 387.11307048 171.80193399 404.91958433 167.8046875 422.38671875 C163.07932329 437.43035871 154.01260375 448.76967852 140.1171875 456.19921875 C124.75671427 463.64296563 106.58910394 465.12350584 90.37402344 459.65161133 C79.83078102 455.7345224 72.20500827 450.39798976 66.78125 440.5234375 C62.30148977 430.59809716 64.66440385 418.36876107 67.8046875 408.38671875 C71.16939611 400.87997611 76.78455582 396.44655394 83.8046875 392.38671875 C91.94152477 389.67443966 101.0287691 391.1374957 108.8046875 394.38671875 C113.14776316 396.79953856 115.90115039 399.3664366 118.8046875 403.38671875 C117.1546875 405.03671875 115.5046875 406.68671875 113.8046875 408.38671875 C114.2996875 408.98484375 114.7946875 409.58296875 115.3046875 410.19921875 C116.8046875 412.38671875 116.8046875 412.38671875 116.8046875 415.38671875 C115.1953125 416.80859375 115.1953125 416.80859375 113.0546875 418.13671875 C112.01054688 418.80960937 112.01054688 418.80960937 110.9453125 419.49609375 C108.36926633 420.56787938 107.36966524 420.38097816 104.8046875 419.38671875 C103.12728888 418.40482688 101.46001373 417.40538104 99.8046875 416.38671875 C94.30522632 414.55356502 89.51561638 414.53125431 84.3046875 417.13671875 C81.80048279 419.14157559 81.80048279 419.14157559 80.7421875 421.32421875 C80.83916692 424.52453955 81.81441293 425.85364202 83.8046875 428.38671875 C93.74969016 437.41933584 104.8088996 438.99710062 117.77001953 438.52294922 C129.13041994 437.76231766 139.13965198 433.06765305 146.94140625 424.828125 C152.05801591 418.12397188 155.42903897 410.88750411 154.8046875 402.38671875 C149.92096294 379.69711644 130.779335 366.90341905 112.53808594 354.89453125 C102.73984635 348.67565754 92.54396686 343.75180942 81.8046875 339.38671875 C82.04251953 340.20269531 82.04251953 340.20269531 82.28515625 341.03515625 C84.82674613 352.53919468 82.4173309 366.98765924 77.26171875 377.546875 C73.38628841 383.42653247 68.13152978 389.35739872 61.0625 391.0390625 C60.31742187 391.15378906 59.57234375 391.26851563 58.8046875 391.38671875 C58.88589844 392.38960938 58.96710938 393.3925 59.05078125 394.42578125 C59.89948392 411.02179335 56.27946028 427.02433189 52.98513794 443.19778442 C51.14107014 452.366402 50.64612409 461.11977628 50.63671875 470.46484375 C50.6325293 471.73351288 50.62833984 473.00218201 50.62402344 474.30929565 C50.61256564 478.41845058 50.61409911 482.52755296 50.6171875 486.63671875 C50.61730709 487.3329409 50.61742668 488.02916306 50.6175499 488.74648285 C50.62131904 506.01132411 50.67719635 523.26761108 51.6171875 540.51171875 C51.65212311 541.2123645 51.68705872 541.91301025 51.72305298 542.6348877 C52.34433336 554.56960717 54.11266719 565.43846506 59.9921875 575.94921875 C60.38583496 576.66956299 60.77948242 577.38990723 61.18505859 578.13208008 C69.85089838 593.68227434 81.39687208 605.70596346 98.52661133 611.83032227 C104.03174071 613.17489304 109.85979617 612.78138629 115.4921875 612.73828125 C123.84371111 612.86980131 123.84371111 612.86980131 127.515625 615.92578125 C128.27101563 616.73789062 129.02640625 617.55 129.8046875 618.38671875 C129.34008281 621.07549481 128.85957386 623.75970426 128.35546875 626.44140625 C128.03588105 628.15040715 127.73265871 629.86295618 127.47265625 631.58203125 C125.89410954 640.15128483 120.06022252 645.79365212 113.1796875 650.69921875 C107.00004659 654.57015198 100.8890326 656.76889956 93.8046875 658.38671875 C92.8353125 658.61101563 91.8659375 658.8353125 90.8671875 659.06640625 C76.40469039 661.81578721 59.40380576 662.56306247 45.8046875 656.38671875 C44.37576172 655.74476563 44.37576172 655.74476563 42.91796875 655.08984375 C31.8899097 649.37704413 20.9768421 639.52287602 13.8046875 629.38671875 C13.8046875 628.72671875 13.8046875 628.06671875 13.8046875 627.38671875 C13.1446875 627.38671875 12.4846875 627.38671875 11.8046875 627.38671875 C11.59585937 628.0828125 11.38703125 628.77890625 11.171875 629.49609375 C9.4078935 633.22565465 6.84471326 635.79468467 3.9296875 638.63671875 C3.35178467 639.20519531 2.77388184 639.77367187 2.1784668 640.359375 C-11.60997935 653.67624464 -25.27520638 661.81649825 -44.6953125 661.69921875 C-45.65147461 661.6950293 -46.60763672 661.69083984 -47.59277344 661.68652344 C-67.47840073 661.37508576 -84.17200568 656.63398549 -98.56640625 642.4140625 C-101.82590315 638.35727859 -102.65238862 634.52882506 -102.1953125 629.38671875 C-101.5353125 628.72671875 -100.8753125 628.06671875 -100.1953125 627.38671875 C-100.17344986 625.1217488 -100.39096782 622.92905976 -100.61328125 620.67578125 C-100.1953125 618.38671875 -100.1953125 618.38671875 -98.390625 616.11328125 C-93.62228411 613.53674497 -89.2097432 614.05333711 -83.8828125 614.13671875 C-72.43024619 613.99357245 -64.68150459 611.6732926 -55.1953125 605.38671875 C-54.29554688 604.79117188 -53.39578125 604.195625 -52.46875 603.58203125 C-50.23499601 601.96087869 -48.21219052 600.26857564 -46.1953125 598.38671875 C-45.62039063 597.85304688 -45.04546875 597.319375 -44.453125 596.76953125 C-38.01595953 590.09505092 -33.5593723 581.50522689 -29.1953125 573.38671875 C-28.62554687 572.35289062 -28.05578125 571.3190625 -27.46875 570.25390625 C-25.14741085 564.55967424 -25.37213053 558.13653825 -25.0703125 552.07421875 C-24.99247944 550.68322435 -24.91385494 549.29227403 -24.83447266 547.90136719 C-24.6385293 544.39004402 -24.46055719 540.87810685 -24.29101562 537.36541748 C-24.20180681 535.52099117 -24.10886247 533.67674658 -24.015625 531.83251953 C-22.24259002 495.98660687 -24.11070106 462.49986587 -31.1953125 427.38671875 C-31.59036987 428.71823975 -31.59036987 428.71823975 -31.9934082 430.07666016 C-32.34491943 431.24374512 -32.69643066 432.41083008 -33.05859375 433.61328125 C-33.57740112 435.34698975 -33.57740112 435.34698975 -34.10668945 437.11572266 C-37.25967291 446.58952223 -43.22063721 452.1325008 -51.90625 456.86328125 C-68.43084981 464.7784257 -87.03132954 464.30781972 -104.1953125 458.38671875 C-118.97554037 452.27201004 -127.85700746 441.46209105 -134.0703125 427.01171875 C-140.30560136 411.69190308 -137.03738958 392.85667942 -131.3203125 377.69921875 C-129.05600732 372.69057569 -126.14878965 368.01383296 -123.1953125 363.38671875 C-134.14243853 369.81459035 -144.42353968 377.5333569 -152.53515625 387.37890625 C-154.44620542 389.6901516 -156.47210671 391.87211614 -158.5078125 394.07421875 C-168.78385908 405.56533841 -176.3507045 417.53237851 -183.83496094 430.95898438 C-198.1997822 456.5949827 -222.00463093 476.33153012 -250.1953125 485.38671875 C-276.38971186 492.5576678 -305.24198593 485.17756996 -328.39404297 472.421875 C-350.74481989 459.57729732 -370.48223605 434.21380753 -377.5390625 409.3515625 C-383.59037417 382.01260087 -377.48681437 350.48964601 -362.72265625 327.078125 C-349.93476045 307.76774707 -330.15661616 297.4737842 -307.87890625 292.671875 C-287.89817043 289.19399948 -266.6519973 292.68850387 -249.703125 304.05859375 C-242.25112909 309.92986326 -237.13844592 319.09737929 -235.1953125 328.38671875 C-233.83937884 344.20158083 -234.11238424 365.22615251 -244.1953125 378.38671875 C-244.81148437 379.20269531 -245.42765625 380.01867187 -246.0625 380.859375 C-252.65564689 388.67213332 -261.54470324 394.169849 -271.1953125 397.38671875 C-282.12688444 398.0916087 -291.34919869 398.45335072 -300.0078125 390.94921875 C-306.0439907 382.71235058 -306.84846878 372.20210143 -305.75 362.421875 C-304.20409725 352.7737215 -301.77296961 346.08484052 -294.8203125 338.94921875 C-291.33836793 336.8766327 -288.16209511 336.19352199 -284.1953125 335.38671875 C-281.90959821 343.81529018 -281.90959821 343.81529018 -282.1953125 348.38671875 C-283.1853125 348.38671875 -284.1753125 348.38671875 -285.1953125 348.38671875 C-284.7003125 353.83171875 -284.7003125 353.83171875 -284.1953125 359.38671875 C-286.6703125 360.87171875 -286.6703125 360.87171875 -289.1953125 362.38671875 C-288.8653125 365.35671875 -288.5353125 368.32671875 -288.1953125 371.38671875 C-279.64732676 373.65727746 -273.21387002 374.04943567 -265.28125 369.75390625 C-258.39142261 365.23810178 -252.33825351 360.04012145 -250.3203125 351.82421875 C-249.67868034 344.92339942 -251.81932773 337.99634505 -255.0078125 331.94921875 C-264.31075886 321.05148158 -277.73445542 317.36037401 -291.63671875 316.06640625 C-310.07575523 315.4370876 -331.57200567 322.74286535 -345.1953125 335.38671875 C-358.26137891 350.39879505 -364.16576012 365.32814837 -363.36132812 385.02490234 C-361.76798806 407.69250786 -345.30974266 428.40091345 -328.8359375 443.03466797 C-309.49608433 458.97277911 -283.68602108 464.35899993 -259.1953125 462.38671875 C-244.27668473 460.43444467 -231.83032301 452.45493449 -220.1953125 443.38671875 C-219.25558594 442.66355469 -218.31585938 441.94039063 -217.34765625 441.1953125 C-207.23343096 433.1957533 -200.71190628 424.99666514 -194.61328125 413.78515625 C-188.11992722 401.87128652 -181.15886129 390.60960911 -172.1953125 380.38671875 C-171.2696127 379.28205704 -170.3465806 378.17515607 -169.42578125 377.06640625 C-135.08680814 335.93260313 -82.58573612 307.16456763 -29.1953125 300.38671875 C-26.52018528 300.30551163 -23.87279344 300.33375759 -21.1953125 300.38671875 C-21.57475305 296.16067748 -21.57475305 296.16067748 -23.1953125 292.38671875 C-26.47828282 290.46744379 -30.01390157 289.74702614 -33.6953125 288.88671875 C-35.80451633 288.32017946 -37.91129293 287.74453124 -40.015625 287.16015625 C-41.58812012 286.72654785 -41.58812012 286.72654785 -43.19238281 286.28417969 C-72.38237929 277.56040513 -111.22532771 255.05638731 -126.984375 228.35546875 C-135.82947283 210.40384162 -135.93860054 192.21622349 -130.1953125 173.38671875 C-125.01833886 159.02729786 -116.09513337 148.14534725 -102.1953125 141.38671875 C-85.56934926 133.89262786 -67.3218881 133.39368342 -50.1953125 139.38671875 C-40.81920569 143.88546834 -33.17237371 150.21229393 -28.921875 159.78515625 C-26.86809963 167.13899711 -27.17693546 173.55402208 -28.8203125 180.94921875 C-28.97371094 181.74779297 -29.12710937 182.54636719 -29.28515625 183.36914062 C-31.22816701 192.46866049 -35.66596369 198.98449539 -43.1953125 204.38671875 C-49.12947143 208.2109545 -55.32178597 208.94578444 -62.2265625 207.94921875 C-69.68361255 206.29209652 -75.88789915 203.79435675 -81.2578125 198.26171875 C-81.721875 197.33359375 -81.721875 197.33359375 -82.1953125 196.38671875 C-81.8653125 195.39671875 -81.5353125 194.40671875 -81.1953125 193.38671875 C-78.6328125 192.19921875 -78.6328125 192.19921875 -76.1953125 191.38671875 C-76.8759375 190.45859375 -77.5565625 189.53046875 -78.2578125 188.57421875 C-78.8971875 187.52234375 -79.5365625 186.47046875 -80.1953125 185.38671875 C-79.05161195 181.95561711 -78.33027941 181.47175311 -75.3828125 179.57421875 C-74.69574219 179.11402344 -74.00867188 178.65382812 -73.30078125 178.1796875 C-71.1953125 177.38671875 -71.1953125 177.38671875 -69.1015625 178.15234375 C-68.4725 178.5596875 -67.8434375 178.96703125 -67.1953125 179.38671875 C-62.37276419 182.19052591 -57.80117675 183.76779718 -52.1953125 183.38671875 C-48.79253438 181.59238222 -48.79253438 181.59238222 -46.1953125 179.38671875 C-45.5353125 179.38671875 -44.8753125 179.38671875 -44.1953125 179.38671875 C-44.65485424 174.44664499 -45.83308156 172.01020412 -49.1953125 168.38671875 C-61.32396145 160.71101663 -73.33092049 158.50677355 -87.34057617 161.56787109 C-93.98186101 163.16560045 -99.78235579 165.10606421 -105.1953125 169.38671875 C-106.0821875 170.00546875 -106.9690625 170.62421875 -107.8828125 171.26171875 C-113.18415954 176.13322684 -117.96425123 182.71112608 -118.328125 190.07421875 C-117.74208321 203.31186861 -111.9770042 214.01076929 -102.453125 222.96484375 C-87.62773075 236.13030679 -70.91209895 246.58830359 -53.1953125 255.38671875 C-53.24171875 254.65710938 -53.288125 253.9275 -53.3359375 253.17578125 C-53.83914012 238.61884831 -51.51149291 224.30067957 -41.34765625 213.40625 C-37.24773978 209.45305022 -33.49415591 207.40134597 -27.98046875 205.9921875 C-25.98288436 205.54802092 -25.98288436 205.54802092 -25.1953125 203.38671875 C-24.981469 201.21245755 -24.82510858 199.03245539 -24.6953125 196.8515625 C-24.63481216 195.85956848 -24.63481216 195.85956848 -24.5730896 194.84753418 C-24.44217725 192.673358 -24.31824053 190.49886011 -24.1953125 188.32421875 C-24.15206848 187.57753937 -24.10882446 186.83085999 -24.06427002 186.06155396 C-23.76175584 180.83728071 -23.47456713 175.61228256 -23.1953125 170.38671875 C-23.13311523 169.23429688 -23.07091797 168.081875 -23.00683594 166.89453125 C-19.29242939 104.92107747 -19.29242939 104.92107747 -44.0078125 49.57421875 C-52.65125162 40.11094123 -66.62202195 31.21660466 -79.1953125 28.38671875 C-82.63509742 28.31811905 -85.82656753 28.72024043 -89.1953125 29.38671875 C-90.2265625 29.57234375 -91.2578125 29.75796875 -92.3203125 29.94921875 C-92.9390625 30.09359375 -93.5578125 30.23796875 -94.1953125 30.38671875 C-94.5253125 28.73671875 -94.8553125 27.08671875 -95.1953125 25.38671875 C-97.5053125 25.38671875 -99.8153125 25.38671875 -102.1953125 25.38671875 C-103.58055204 20.81542828 -102.5878372 17.87374277 -101.1953125 13.38671875 C-101.0715625 12.21109375 -100.9478125 11.03546875 -100.8203125 9.82421875 C-99.88967235 4.70569791 -97.6132471 1.49577578 -93.5234375 -1.703125 C-64.21083752 -19.29812474 -28.03504071 -23.46981807 0 0 Z M-63.1953125 9.38671875 C-62.15632813 9.94359375 -61.11734375 10.50046875 -60.046875 11.07421875 C-51.8176589 15.5494973 -44.21098916 20.10953437 -37.1953125 26.38671875 C-36.53660156 26.92941406 -35.87789063 27.47210938 -35.19921875 28.03125 C-13.87601893 47.0376434 -8.97530292 77.49182315 -7.35205078 104.38134766 C-6.51829991 120.36806607 -7.3758582 136.34682359 -8.0703125 152.32421875 C-8.11208618 153.29675598 -8.15385986 154.26929321 -8.19689941 155.27130127 C-8.63360633 165.28585088 -9.13839704 175.28046381 -9.984375 185.26953125 C-10.10448915 186.76308938 -10.22444881 188.25665994 -10.34423828 189.75024414 C-10.56507876 192.48597705 -10.82667482 195.21352769 -11.11279297 197.94311523 C-11.38201573 201.19146023 -11.60924698 204.15395731 -11.1953125 207.38671875 C-8.53966413 210.23987075 -8.53966413 210.23987075 -5.1953125 211.38671875 C-1.49110897 215.46134263 -1.90722135 219.72843884 -1.9921875 224.9609375 C-2.1953125 227.38671875 -2.1953125 227.38671875 -3.1953125 229.38671875 C-3.32264206 230.80149164 -3.42340885 232.21873738 -3.5078125 233.63671875 C-3.99657052 238.18873377 -5.14599681 240.85593216 -8.1953125 244.38671875 C-9.38813818 245.30834258 -10.60573809 246.19862277 -11.84375 247.05859375 C-12.47200684 247.4978418 -13.10026367 247.93708984 -13.74755859 248.38964844 C-14.46419678 248.88319824 -14.46419678 248.88319824 -15.1953125 249.38671875 C-14.63110736 252.16272808 -14.0450825 254.93087739 -13.4453125 257.69921875 C-13.28804688 258.48490234 -13.13078125 259.27058594 -12.96875 260.08007812 C-12.00232898 264.57473226 -12.00232898 264.57473226 -9.45703125 268.296875 C2.54083755 274.07823147 16.01484515 275.89413746 28.85546875 272.46875 C30.31533203 271.93314453 30.31533203 271.93314453 31.8046875 271.38671875 C32.81764893 271.04954834 32.81764893 271.04954834 33.85107422 270.70556641 C37.03021834 269.4444362 39.23709652 268.51328219 40.81762695 265.3762207 C41.48670706 262.96575488 41.93365919 260.61024082 42.3046875 258.13671875 C42.459375 257.29625 42.6140625 256.45578125 42.7734375 255.58984375 C43.14839699 253.52756656 43.48084012 251.45763755 43.8046875 249.38671875 C42.89976562 249.05800781 42.89976562 249.05800781 41.9765625 248.72265625 C36.52355114 246.55904206 33.57536082 244.81262066 30.8046875 239.38671875 C28.13817217 231.38717276 30.10346594 222.1678495 32.8046875 214.38671875 C33.50078125 213.6803125 34.196875 212.97390625 34.9140625 212.24609375 C39.39119198 205.47489793 36.66181103 194.65514389 36.0925293 186.88305664 C34.86471438 169.89154789 34.55875854 152.90473074 34.50512695 135.87210083 C34.49659963 133.28685332 34.4830485 130.70161678 34.46411133 128.11642456 C34.36459901 112.92170647 34.89691689 98.32031656 37.8046875 83.38671875 C37.95892181 82.57570709 38.11315613 81.76469543 38.27206421 80.92910767 C42.865094 56.96584717 52.94617391 33.42385294 73.63037109 19.14575195 C78.54434918 15.87721382 83.47351179 12.94209087 88.8046875 10.38671875 C88.8046875 10.05671875 88.8046875 9.72671875 88.8046875 9.38671875 C74.8718709 6.32100061 56.42938939 8.71787682 43.9609375 15.91796875 C32.55875759 23.68467101 23.51054851 32.15148465 18.8046875 45.38671875 C18.8046875 46.04671875 18.8046875 46.70671875 18.8046875 47.38671875 C17.53625 46.86078125 17.53625 46.86078125 16.2421875 46.32421875 C12.35451217 45.26394366 9.72043111 45.60357003 5.8046875 46.38671875 C5.7221875 45.72671875 5.6396875 45.06671875 5.5546875 44.38671875 C2.45093245 31.97169855 -7.81331822 22.26709366 -18.1953125 15.38671875 C-29.084703 9.34405119 -51.60152071 2.60340467 -63.1953125 9.38671875 Z M-35.1953125 234.38671875 C-36.95182781 236.00366679 -36.95182781 236.00366679 -38.1953125 238.38671875 C-38.00813329 242.78543016 -36.72100425 245.80865544 -34.1953125 249.38671875 C-33.8653125 249.38671875 -33.5353125 249.38671875 -33.1953125 249.38671875 C-33.5253125 244.43671875 -33.8553125 239.48671875 -34.1953125 234.38671875 C-34.5253125 234.38671875 -34.8553125 234.38671875 -35.1953125 234.38671875 Z M59.8046875 235.38671875 C59.29901021 237.94821503 58.79998618 240.5107134 58.3046875 243.07421875 C58.16160156 243.79544922 58.01851563 244.51667969 57.87109375 245.25976562 C57.14896863 249.02513234 56.6221899 252.53145688 56.8046875 256.38671875 C60.36868162 253.71372316 63.48490799 251.22327716 65.8046875 247.38671875 C65.71960887 242.62231542 64.68914612 239.19420413 61.8046875 235.38671875 C61.1446875 235.38671875 60.4846875 235.38671875 59.8046875 235.38671875 Z M-5.1953125 296.38671875 C-4.8653125 297.37671875 -4.5353125 298.36671875 -4.1953125 299.38671875 C-4.1953125 298.39671875 -4.1953125 297.40671875 -4.1953125 296.38671875 C-4.5253125 296.38671875 -4.8553125 296.38671875 -5.1953125 296.38671875 Z M27.8046875 297.38671875 C30.48111239 299.57161882 30.48111239 299.57161882 32.8046875 299.38671875 C32.8046875 298.72671875 32.8046875 298.06671875 32.8046875 297.38671875 C31.1546875 297.38671875 29.5046875 297.38671875 27.8046875 297.38671875 Z M-6.1953125 328.38671875 C-8.50775429 335.25603112 -9.85678549 343.15319151 -9.1953125 350.38671875 C-7.25182749 352.11895539 -5.24811246 353.78553478 -3.1953125 355.38671875 C-1.32052434 359.02492151 -0.94684309 362.01143885 -1.0078125 366.07421875 C-1.01425781 367.02683594 -1.02070313 367.97945313 -1.02734375 368.9609375 C-1.1953125 371.38671875 -1.1953125 371.38671875 -2.1953125 373.38671875 C-2.34707457 374.84251042 -2.46844287 376.30158736 -2.5703125 377.76171875 C-2.93789752 381.51590677 -3.58789666 383.5525711 -6.1953125 386.38671875 C-6.1953125 387.04671875 -6.1953125 387.70671875 -6.1953125 388.38671875 C-6.90558594 388.59167969 -7.61585938 388.79664063 -8.34765625 389.0078125 C-9.26675781 389.27722656 -10.18585938 389.54664063 -11.1328125 389.82421875 C-12.04933594 390.09105469 -12.96585937 390.35789062 -13.91015625 390.6328125 C-16.1355618 391.17697926 -16.1355618 391.17697926 -17.1953125 392.38671875 C-18.13506225 403.3864125 -16.51844189 413.80019818 -14.4609375 424.57421875 C-14.27547363 425.58387695 -14.09000977 426.59353516 -13.89892578 427.63378906 C-13.51665699 429.67273278 -13.12854341 431.71076669 -12.7098999 433.74255371 C-9.16989943 451.01213017 -8.62022237 467.9327938 -8.80003357 485.48204041 C-8.82059695 487.66694182 -8.83387723 489.85177367 -8.84484863 492.03674316 C-9.24510774 570.59800515 -9.24510774 570.59800515 -20.1953125 591.38671875 C-20.51661133 592.00740234 -20.83791016 592.62808594 -21.16894531 593.26757812 C-30.29320097 610.74667467 -40.92563955 622.2539134 -58.2890625 631.72265625 C-61.20972681 633.22627983 -61.20972681 633.22627983 -63.1953125 635.38671875 C-56.78067831 637.28315359 -50.92948659 637.72205131 -44.2578125 637.69921875 C-43.32001953 637.71533203 -42.38222656 637.73144531 -41.41601562 637.74804688 C-30.38154494 637.75571503 -20.55572117 634.06885446 -12.25390625 626.65234375 C-11.09475173 625.4802233 -9.95494107 624.28863587 -8.8359375 623.078125 C-7.24070345 621.43351466 -5.59843811 620.17981464 -3.7578125 618.82421875 C-0.24415789 615.89218951 1.92734044 612.25101136 4.1796875 608.32421875 C4.52572021 607.722146 4.87175293 607.12007324 5.22827148 606.49975586 C7.06431143 603.16012197 8.30379791 600.17201291 8.8046875 596.38671875 C10.135 596.69609375 10.135 596.69609375 11.4921875 597.01171875 C15.0299586 597.41222114 16.67101717 596.95355391 19.8046875 595.38671875 C19.95164062 595.93199219 20.09859375 596.47726562 20.25 597.0390625 C25.05833636 613.20502094 38.80942805 625.54104257 53.09765625 633.6953125 C63.63485227 638.53672689 78.6111936 637.69291599 89.8046875 635.38671875 C88.27127477 632.31989329 85.29368603 631.58813993 82.3046875 630.19921875 C68.24203777 623.42096077 57.54348732 612.71308833 49.7421875 599.26171875 C49.31099609 598.52179688 48.87980469 597.781875 48.43554688 597.01953125 C40.00710382 582.228315 37.45574785 567.72986767 36.6796875 550.94921875 C36.61814484 549.65355988 36.61814484 549.65355988 36.55535889 548.33172607 C35.8345208 532.65429465 35.53821636 516.97055406 35.45220947 501.27755737 C35.437452 498.81000008 35.41632377 496.34247078 35.38812256 493.87503052 C35.1793402 473.76708806 36.91978334 454.25435668 41.53965759 434.64845276 C44.54886779 421.79879623 47.03084241 404.06518349 42.8046875 391.38671875 C41.04036375 390.1140595 41.04036375 390.1140595 38.9296875 389.01171875 C35.39727936 386.87201633 33.26365859 385.39888924 31.8046875 381.38671875 C31.01182658 373.06167909 32.78368169 364.5019179 35.40039062 356.58422852 C35.95073526 353.59289272 35.49463807 351.09185576 35.02734375 348.08984375 C34.84365234 346.88457031 34.65996094 345.67929687 34.47070312 344.4375 C34.27154297 343.18324219 34.07238281 341.92898438 33.8671875 340.63671875 C33.67189453 339.36699219 33.47660156 338.09726562 33.27539062 336.7890625 C32.79213532 333.65379639 32.30164098 330.51983785 31.8046875 327.38671875 C30.4846875 327.05671875 29.1646875 326.72671875 27.8046875 326.38671875 C25.76438277 329.44717584 25.58532422 330.23330873 25.4296875 333.69921875 C25.01267994 338.19119493 23.7838514 340.89684104 20.8046875 344.38671875 C17.3952832 346.97316339 13.9660426 346.7517499 9.8046875 346.38671875 C6.42270643 345.00318104 5.0545436 343.73651729 2.9296875 340.76171875 C1.64241578 336.8999036 1.84536206 334.3915513 2.48046875 330.4375 C2.8827654 328.2388945 2.8827654 328.2388945 2.8046875 325.38671875 C-0.99178907 325.38671875 -3.41873894 325.95024758 -6.1953125 328.38671875 Z M-31.5390625 344.64453125 C-35.81292664 348.90350794 -35.81292664 348.90350794 -37.5703125 354.44921875 C-35.67026533 358.50841043 -33.40953036 362.23272043 -30.1953125 365.38671875 C-28.0900629 366.1556758 -28.0900629 366.1556758 -26.1953125 366.38671875 C-26.5253125 364.40671875 -26.8553125 362.42671875 -27.1953125 360.38671875 C-26.5353125 360.38671875 -25.8753125 360.38671875 -25.1953125 360.38671875 C-25.0096875 359.12859375 -24.8240625 357.87046875 -24.6328125 356.57421875 C-24.52839844 355.86652344 -24.42398437 355.15882813 -24.31640625 354.4296875 C-24.05626451 352.18418455 -24.05626451 352.18418455 -25.1953125 349.38671875 C-24.2053125 349.05671875 -23.2153125 348.72671875 -22.1953125 348.38671875 C-21.5353125 344.09671875 -20.8753125 339.80671875 -20.1953125 335.38671875 C-23.84019859 335.38671875 -29.05845506 342.25487941 -31.5390625 344.64453125 Z M49.8046875 336.38671875 C49.94563814 338.01214955 50.09260837 339.63705926 50.2421875 341.26171875 C50.32339844 342.16664063 50.40460938 343.0715625 50.48828125 344.00390625 C50.67458035 346.39782736 50.67458035 346.39782736 51.8046875 348.38671875 C54.83403241 349.04444303 54.83403241 349.04444303 57.8046875 349.38671875 C57.57652344 350.50691406 57.34835937 351.62710937 57.11328125 352.78125 C56.82251754 354.2538275 56.53217486 355.72648817 56.2421875 357.19921875 C56.09072266 357.93720703 55.93925781 358.67519531 55.78320312 359.43554688 C54.89656144 363.94121035 54.89656144 363.94121035 55.8046875 368.38671875 C61.1339689 367.75052426 63.17355047 365.54005289 66.47265625 361.5078125 C68.05717361 359.36154878 68.05717361 359.36154878 67.9921875 356.26171875 C64.78346107 348.49322319 58.71702731 341.18695473 51.8046875 336.38671875 C51.1446875 336.38671875 50.4846875 336.38671875 49.8046875 336.38671875 Z M-88.1953125 359.38671875 C-89.26007813 360.16015625 -90.32484375 360.93359375 -91.421875 361.73046875 C-94.37537945 363.91381888 -97.288723 366.14146001 -100.1953125 368.38671875 C-101.0925 369.05445313 -101.9896875 369.7221875 -102.9140625 370.41015625 C-111.9089045 377.26465934 -120.22637623 386.36242752 -122.7109375 397.75 C-123.42852448 407.71467372 -118.22235193 417.48360298 -111.9453125 424.88671875 C-101.97800374 435.02042665 -90.54897278 438.61472002 -76.5703125 438.76171875 C-65.17143658 438.64132134 -55.83927909 435.77913204 -47.44140625 427.69921875 C-47.03019531 427.26609375 -46.61898437 426.83296875 -46.1953125 426.38671875 C-47.51769538 420.70047236 -49.63879614 418.70917859 -54.1953125 415.38671875 C-57.67598185 413.64638408 -61.38993239 413.92235382 -65.1953125 414.38671875 C-68.08984965 415.478727 -70.50562603 416.82181026 -73.1953125 418.38671875 C-73.1953125 419.04671875 -73.1953125 419.70671875 -73.1953125 420.38671875 C-76.4953125 418.73671875 -79.7953125 417.08671875 -83.1953125 415.38671875 C-83.1953125 411.38671875 -83.1953125 411.38671875 -82.1953125 408.38671875 C-81.2053125 408.05671875 -80.2153125 407.72671875 -79.1953125 407.38671875 C-79.1953125 406.72671875 -79.1953125 406.06671875 -79.1953125 405.38671875 C-80.5153125 405.05671875 -81.8353125 404.72671875 -83.1953125 404.38671875 C-79.20461272 397.63322681 -74.97523954 394.70952645 -67.3203125 392.63671875 C-58.33624446 390.63164315 -52.38983131 391.01529329 -44.1953125 395.38671875 C-43.1228125 395.94359375 -42.0503125 396.50046875 -40.9453125 397.07421875 C-37.17628797 400.24362574 -35.31492647 403.99742965 -33.1953125 408.38671875 C-32.8653125 408.38671875 -32.5353125 408.38671875 -32.1953125 408.38671875 C-31.8653125 402.77671875 -31.5353125 397.16671875 -31.1953125 391.38671875 C-32.9278125 390.42765625 -32.9278125 390.42765625 -34.6953125 389.44921875 C-42.25559509 384.72236356 -48.26171407 377.71485907 -50.8828125 369.13671875 C-52.07668245 358.63066323 -50.08186071 348.6953572 -48.1953125 338.38671875 C-60.9447491 338.38671875 -78.0652226 351.93973374 -88.1953125 359.38671875 Z " fill="#C63300" transform="translate(379.1953125,16.61328125)"/>
<path d="M0 0 C36.6086246 11.56753063 72.25061746 38.24806918 95 69 C95.58265625 69.77730469 96.1653125 70.55460937 96.765625 71.35546875 C101.17136982 77.438175 104.97135381 83.86285477 108.8046875 90.3125 C123.38232829 114.83231978 148.9873561 137.13892116 177.40625 144.48046875 C206.87204405 150.3825028 237.77189834 145.60997025 263.88671875 130.30859375 C270.08088396 126.11756517 275.5789604 121.13388983 281 116 C281.75152344 115.30132812 282.50304687 114.60265625 283.27734375 113.8828125 C294.90109526 102.72891386 304.88102944 88.93253365 311 74 C311.33 74 311.66 74 312 74 C310.80397773 97.92044542 289.86273139 119.66568854 273 135 C249.90100796 154.21713148 218.2688213 160.46003954 189 159 C162.18091249 156.52771043 133.57656575 138.85606318 115.91796875 118.61328125 C114.12622707 116.14176872 112.54893118 113.63140263 111 111 C110.62955566 110.37432129 110.25911133 109.74864258 109.87744141 109.10400391 C108.16359033 106.20640777 106.4582733 103.30397835 104.76293945 100.39550781 C98.71602804 90.03462031 92.23025508 80.77893875 84 72 C82.74310034 70.58945128 81.49258368 69.17317611 80.25 67.75 C79.68667969 67.10675781 79.12335938 66.46351563 78.54296875 65.80078125 C77.17994148 64.21000765 75.86706017 62.57656277 74.5625 60.9375 C67.00834717 52.27786139 57.26877626 45.20456431 48.125 38.3125 C45.11034234 35.9931243 42.81640307 33.6493541 40.46484375 30.640625 C36.82511224 26.56412571 32.30242588 23.34331776 28 20 C27.38092773 19.51660156 26.76185547 19.03320312 26.12402344 18.53515625 C18.37977919 12.51738464 10.68271036 6.91834303 2.0625 2.20703125 C1.381875 1.80871094 0.70125 1.41039062 0 1 C0 0.67 0 0.34 0 0 Z " fill="#030000" transform="translate(491,345)"/>
<path d="M0 0 C-1.02996094 0.51046875 -2.05992187 1.0209375 -3.12109375 1.546875 C-18.42399138 9.29444299 -31.90967796 18.96021891 -45 30 C-50.10624423 34.24173769 -55.2322724 38.2095184 -60.8125 41.8125 C-69.85876416 47.74619646 -78.43825127 54.61531604 -85.33984375 62.9921875 C-87.25089292 65.30343285 -89.27679421 67.48539739 -91.3125 69.6875 C-101.58854658 81.17861966 -109.155392 93.14565976 -116.63964844 106.57226562 C-131.0044697 132.20826395 -154.80931843 151.94481137 -183 161 C-209.19439936 168.17094905 -238.04667343 160.79085121 -261.19873047 148.03515625 C-283.54950739 135.19057857 -303.28692355 109.82708878 -310.34375 84.96484375 C-311.70224159 78.82737282 -312.19300693 72.88500532 -312.1875 66.625 C-312.1884668 65.46991943 -312.1884668 65.46991943 -312.18945312 64.29150391 C-312.11627297 56.11362108 -311.14658992 48.08755393 -310 40 C-309.67 40 -309.34 40 -309 40 C-308.99589111 40.79470703 -308.99178223 41.58941406 -308.98754883 42.40820312 C-308.6705512 77.44531718 -298.01186098 99.61216002 -273.484375 124.55859375 C-255.06618869 142.24974639 -227.96375289 151.51016038 -202.5871582 151.09106445 C-177.47830076 150.20726679 -157.93318631 139.98327196 -139 124 C-138.45005371 123.54189941 -137.90010742 123.08379883 -137.33349609 122.61181641 C-135.72545235 121.26032939 -134.14077389 119.88607721 -132.5625 118.5 C-131.65628906 117.7059375 -130.75007812 116.911875 -129.81640625 116.09375 C-121.58134736 107.77052131 -116.39927119 95.81287935 -110.78125 85.671875 C-106.50535847 78.12197448 -101.66055497 71.5638207 -96 65 C-95.07676125 63.87303063 -94.15673945 62.74340519 -93.2421875 61.609375 C-81.35158434 47.24646821 -68.71798653 35.10926616 -53 25 C-52.3925293 24.60651367 -51.78505859 24.21302734 -51.15917969 23.80761719 C-9.20485122 -3.06828374 -9.20485122 -3.06828374 0 0 Z " fill="#030000" transform="translate(312,341)"/>
<path d="M0 0 C0.66 0 1.32 0 2 0 C3.19140625 1.43359375 3.19140625 1.43359375 4.5625 3.4375 C13.92510178 16.25185618 28.04937103 28.7378851 44 32 C67.67535723 33.32545049 89.18213508 32.79466695 108 17 C109.7719299 14.87650525 109.7719299 14.87650525 111 13 C111.99 13.33 112.98 13.66 114 14 C112.62567988 22.39862295 108.87984332 27.79515866 102.328125 33.20703125 C95.30034169 38.21758046 88.3863983 41.08483693 80 43 C79.030625 43.22429688 78.06125 43.44859375 77.0625 43.6796875 C62.60000289 46.42906846 45.59911826 47.17634372 32 41 C31.04738281 40.57203125 30.09476563 40.1440625 29.11328125 39.703125 C18.0852222 33.99032538 7.1721546 24.13615727 0 14 C0 13.34 0 12.68 0 12 C-0.66 12 -1.32 12 -2 12 C-2.31324219 13.04414062 -2.31324219 13.04414062 -2.6328125 14.109375 C-4.396794 17.8389359 -6.95997424 20.40796592 -9.875 23.25 C-10.45290283 23.81847656 -11.03080566 24.38695312 -11.6262207 24.97265625 C-25.41466685 38.28952589 -39.07989388 46.4297795 -58.5 46.3125 C-59.45616211 46.30831055 -60.41232422 46.30412109 -61.39746094 46.29980469 C-81.28308823 45.98836701 -97.97669318 41.24726674 -112.37109375 27.02734375 C-115.63059065 22.97055984 -116.45707612 19.14210631 -116 14 C-115.34 13.34 -114.68 12.68 -114 12 C-113.01 12 -112.02 12 -111 12 C-109.87958669 13.66364401 -108.75942912 15.32746088 -107.640625 16.9921875 C-99.93605628 26.42111207 -87.92617948 30.47877667 -76.375 32.25 C-75.31192627 32.41838379 -74.24885254 32.58676758 -73.15356445 32.76025391 C-65.35312078 33.93344064 -57.88990796 34.65836318 -50 34 C-48.61748047 33.89365234 -48.61748047 33.89365234 -47.20703125 33.78515625 C-29.18423753 31.47054061 -14.67079842 18.01136311 -3 5 C-2.443125 4.06671875 -1.88625 3.1334375 -1.3125 2.171875 C-0.879375 1.45515625 -0.44625 0.7384375 0 0 Z " fill="#020000" transform="translate(393,632)"/>
<path d="M0 0 C11.7206782 7.46602311 21.48416741 16.45250223 26 30 C26.86625 29.95875 27.7325 29.9175 28.625 29.875 C32.12358468 30.00457721 34.74551597 30.76019656 38 32 C38.17015625 30.90945312 38.17015625 30.90945312 38.34375 29.796875 C40.94741677 18.70029519 50.45842176 10.12288453 59.625 4.125 C74.07546157 -4.53729326 92.54921728 -8.2209952 109.26074219 -4.49609375 C113.01460403 -3.35540759 116.53501554 -1.83055783 120 0 C120 0.66 120 1.32 120 2 C113.1421682 5.52328973 107.11479709 6.23011933 99.5625 6 C78.82503088 5.460064 62.3065135 10.61572011 47.02734375 24.8359375 C41.71456026 30.37057349 38.92066832 36.98183729 36 44 C31.71 43.67 27.42 43.34 23 43 C22.29875 41.35 21.5975 39.7 20.875 38 C14.58194937 24.29201784 4.07781299 14.54202512 -10 9 C-19.92802439 5.85899973 -29.41354981 4.8787995 -39.75 5.125 C-47.66297951 5.23607987 -54.45793891 4.57533793 -62 2 C-45.04482979 -11.604992 -18.52765535 -9.94166872 0 0 Z " fill="#030000" transform="translate(362,20)"/>
<path d="M0 0 C0.33 0 0.66 0 1 0 C1.07476562 1.13695312 1.14953125 2.27390625 1.2265625 3.4453125 C2.69134464 21.88752167 9.15697494 36.57140197 23.375 48.875 C36.95245103 60.21538324 51.26399683 69.9268047 67 78 C67.75893555 78.39703125 68.51787109 78.7940625 69.29980469 79.203125 C80.09238144 84.80635069 90.8214748 88.73871366 102.5859375 91.80859375 C109.18640759 93.55428058 109.18640759 93.55428058 112 95 C114.76768571 101.22729285 114.61589595 108.2781792 115 115 C113.68 115 112.36 115 111 115 C110.8865625 113.7521875 110.773125 112.504375 110.65625 111.21875 C110.18342904 108.96643653 110.18342904 108.96643653 109 107 C105.71702968 105.08072504 102.18141093 104.36030739 98.5 103.5 C96.39079617 102.93346071 94.28401957 102.35781249 92.1796875 101.7734375 C91.13135742 101.48436523 90.08302734 101.19529297 89.00292969 100.89746094 C59.81293321 92.17368638 20.96998479 69.66966856 5.2109375 42.96875 C-0.71702413 30.93761605 -4.70627622 16.05526497 -1 2.75 C-0.67 1.8425 -0.34 0.935 0 0 Z " fill="#020000" transform="translate(247,202)"/>
<path d="M0 0 C7.21882575 6.66944784 11.83387316 14.40529202 16.50390625 22.93359375 C16.95894531 23.74441406 17.41398438 24.55523437 17.8828125 25.390625 C22.57344675 34.16609203 22.82575988 42.36633591 22.76464844 52.13476562 C22.75385692 54.19300296 22.76462666 56.25038171 22.77734375 58.30859375 C22.77476562 59.613125 22.7721875 60.91765625 22.76953125 62.26171875 C22.76727539 63.44668945 22.76501953 64.63166016 22.76269531 65.85253906 C22.51599925 68.78961857 22.04110274 70.45911955 20.50390625 72.93359375 C20.46950439 72.20881836 20.43510254 71.48404297 20.3996582 70.73730469 C20.2276441 67.38449653 20.02219511 64.03449197 19.81640625 60.68359375 C19.73616211 58.97429687 19.73616211 58.97429687 19.65429688 57.23046875 C18.91490996 45.91463418 14.99406155 36.67666815 9.06640625 27.12109375 C8.67445068 26.48365234 8.28249512 25.84621094 7.87866211 25.18945312 C-2.78700059 8.11737448 -20.0944255 0.14254966 -39.24609375 -4.56640625 C-58.01542299 -8.74267426 -75.99472719 -5.06711484 -92.87109375 3.68359375 C-96.09207915 6.44443838 -98.08633526 9.50826498 -100.296875 13.10546875 C-100.89048828 14.01039063 -100.89048828 14.01039063 -101.49609375 14.93359375 C-101.82609375 14.93359375 -102.15609375 14.93359375 -102.49609375 14.93359375 C-103.4892229 7.65064662 -100.43689891 1.94291282 -96.49609375 -4.06640625 C-73.47519451 -29.53732087 -23.33948415 -19.32173258 0 0 Z " fill="#020000" transform="translate(770.49609375,339.06640625)"/>
<path d="M0 0 C0.87398438 0.30035156 1.74796875 0.60070312 2.6484375 0.91015625 C10.52766706 4.01613241 16.90823792 9.18381143 20.32421875 17.0390625 C22.99191854 24.78001797 22.67223646 34.0568768 21 42 C18.9177514 38.8766271 18.40083344 36.81566224 17.625 33.1875 C15.78510041 25.58990469 12.63485847 20.33551295 6 16 C-9.06406031 7.52489429 -26.26853885 5.71104507 -42.88696289 10.09301758 C-64.99543206 16.46117444 -78.00008237 27.33502586 -89.5546875 47.2734375 C-90.8963985 49.80455718 -91.99604036 52.31952524 -93 55 C-93.33 55 -93.66 55 -94 55 C-95.12610364 45.09028795 -89.39266822 36.35714074 -84.5 28.125 C-84.13269775 27.50689453 -83.76539551 26.88878906 -83.38696289 26.25195312 C-74.00171519 10.91725827 -58.8038232 2.99792514 -42.125 -2.4921875 C-27.98690099 -5.87077734 -13.62831447 -4.69997957 0 0 Z " fill="#020000" transform="translate(110,325)"/>
<path d="M0 0 C2.15448514 4.30897028 -0.87545018 10.55673623 -2.29492188 15.03125 C-7.43779612 29.39140856 -18.47726157 38.82135834 -30.25244141 47.67871094 C-31.86254227 48.89607136 -33.45372482 50.13834678 -35.04296875 51.3828125 C-56.32829376 67.87103997 -81.00916113 79.26297587 -107 86 C-107.72300293 86.18916992 -108.44600586 86.37833984 -109.19091797 86.57324219 C-114.20935187 87.86443444 -118.80650161 89 -124 89 C-123.67 85.37 -123.34 81.74 -123 78 C-121.78570312 77.74347656 -120.57140625 77.48695313 -119.3203125 77.22265625 C-82.72845286 69.18295891 -50.75855118 53.95951255 -22 30 C-20.989375 29.16726562 -19.97875 28.33453125 -18.9375 27.4765625 C-9.96109213 19.74416767 -4.35532741 10.95594784 0 0 Z " fill="#030000" transform="translate(550,222)"/>
<path d="M0 0 C1.2684375 0.12375 1.2684375 0.12375 2.5625 0.25 C4.5625 3.25 4.5625 3.25 4.5625 6.25 C5.305 5.92 6.0475 5.59 6.8125 5.25 C17.64702764 2.36079263 25.24849824 4.70779002 34.73046875 9.9765625 C50.45425676 19.14456726 60.42187501 30.21772599 68.5625 46.25 C69.21025391 47.45269531 69.21025391 47.45269531 69.87109375 48.6796875 C72.23205185 53.4016037 73.49163818 58.39711417 74.75 63.5 C74.91733643 64.16700928 75.08467285 64.83401855 75.25708008 65.52124023 C77.66265712 75.97352832 77.72097414 86.8330726 77.765625 97.51171875 C77.77245804 98.64583694 77.77929108 99.77995514 77.78633118 100.94844055 C77.80334208 104.61149097 77.80966044 108.27441237 77.8125 111.9375 C77.81550613 113.81610718 77.81550613 113.81610718 77.818573 115.73266602 C77.82869373 141.66653571 76.63366038 167.4880333 73.5625 193.25 C72.9025 193.25 72.2425 193.25 71.5625 193.25 C71.61887634 192.21027039 71.61887634 192.21027039 71.6763916 191.14953613 C80.30046129 109.96629127 80.30046129 109.96629127 52.75 36.4375 C44.10656088 26.97422248 30.13579055 18.07988591 17.5625 15.25 C14.12271508 15.1814003 10.93124497 15.58352168 7.5625 16.25 C6.53125 16.435625 5.5 16.62125 4.4375 16.8125 C3.81875 16.956875 3.2 17.10125 2.5625 17.25 C2.2325 15.6 1.9025 13.95 1.5625 12.25 C-0.7475 12.25 -3.0575 12.25 -5.4375 12.25 C-6.56834944 8.75464719 -6.52690511 7.46132116 -5.0625 4 C-2.87298387 0.29466501 -2.87298387 0.29466501 0 0 Z " fill="#030000" transform="translate(282.4375,29.75)"/>
<path d="M0 0 C0.33 0 0.66 0 1 0 C0.99097656 0.969375 0.98195312 1.93875 0.97265625 2.9375 C1.16316329 17.21294707 5.77143355 30.6681147 16 41 C28.87612441 53.10311523 45.23610395 57.86303652 62.71875 57.34375 C75.09139911 56.04756771 88.0744919 51.92400911 96.5625 42.375 C98.59768696 39.7154489 100.39512586 36.94226926 102 34 C103.79081416 37.58162833 102.15033989 41.32578006 101 45 C95.92743103 57.0399497 86.4900755 61.99455331 75 67 C60.71367814 72.57215646 41.60973131 69.38933804 27.80859375 63.6796875 C12.82711693 56.05351154 4.4192942 43.63085682 -1 28 C-3.30869167 18.70715303 -2.03287342 9.220533 0 0 Z " fill="#020000" transform="translate(244,410)"/>
<path d="M0 0 C0.33 0 0.66 0 1 0 C0.99555878 0.62083466 0.99111755 1.24166931 0.98654175 1.88131714 C0.70338291 41.20116497 0.70338291 41.20116497 1.8125 80.5 C1.84752625 81.33094177 1.88255249 82.16188354 1.91864014 83.01800537 C2.60341388 98.75757507 3.72889463 113.83320227 11.625 127.8125 C12.15988037 128.7917041 12.69476074 129.7709082 13.24584961 130.77978516 C24.53369469 151.06719337 40.36751881 165.26380697 63 172 C66.34088188 172.57897183 69.61152755 172.91586186 73 173 C69.04812415 177.71675505 65.05863554 179.82458648 59 181 C47.56282599 181.90433469 37.35045162 174.12195576 29 167 C28.18015625 166.37738281 27.3603125 165.75476563 26.515625 165.11328125 C12.05658439 152.96678906 1.32457327 130.20592701 -0.29711914 111.58911133 C-0.38106255 110.25369903 -0.46006683 108.91797065 -0.53515625 107.58203125 C-0.59989388 106.4637645 -0.59989388 106.4637645 -0.66593933 105.32290649 C-0.80571017 102.81977698 -0.93588458 100.31632874 -1.0625 97.8125 C-1.10669067 96.94239288 -1.15088135 96.07228577 -1.19641113 95.17581177 C-2.03981244 77.93360878 -2.2213681 60.69815413 -2.25 43.4375 C-2.25508575 42.19078522 -2.26017151 40.94407043 -2.26541138 39.65957642 C-2.30932371 26.29734912 -2.2325869 13.20353927 0 0 Z " fill="#030000" transform="translate(416,470)"/>
<path d="M0 0 C0.33 0 0.66 0 1 0 C2.18941668 11.89416682 -3.78211993 23.8431992 -11 33 C-22.08672904 45.37819389 -36.98663254 51.19643135 -53.3203125 52.34765625 C-68.11331754 53.0250765 -82.36162609 49.6386533 -94 40 C-101.32714263 32.49194027 -103.340301 24.92502597 -103.30078125 14.63671875 C-103 12 -103 12 -101 9 C-100.8040625 9.83402344 -100.608125 10.66804688 -100.40625 11.52734375 C-97.81705163 21.27031864 -94.41512814 27.5169361 -85.8359375 33.03515625 C-75.43136989 38.85932226 -67.61426646 40.36205237 -55.8125 40.375 C-54.0790332 40.41173828 -54.0790332 40.41173828 -52.31054688 40.44921875 C-37.0052694 40.50078061 -24.36386814 34.83437166 -13.2890625 24.4453125 C-6.77052754 17.48182634 -3.41034144 8.7823837 0 0 Z " fill="#040100" transform="translate(547,427)"/>
<path d="M0 0 C7.67548921 1.34461125 14.08565599 4.07983205 21.0625 7.5 C22.71523926 8.3041333 22.71523926 8.3041333 24.40136719 9.12451172 C38.38046003 16.03223729 50.88931261 24.22004867 63 34 C64.08706628 34.85699071 65.17430678 35.71376046 66.26171875 36.5703125 C75.90867824 44.26559193 84.38620773 53.50199877 87 66 C87.07766084 67.44098431 87.10796367 68.88508629 87.09765625 70.328125 C87.09282227 71.52695312 87.09282227 71.52695312 87.08789062 72.75 C87.07532227 73.9875 87.07532227 73.9875 87.0625 75.25 C87.05798828 76.09046875 87.05347656 76.9309375 87.04882812 77.796875 C87.03707961 79.86461401 87.01914522 81.93231624 87 84 C86.67 84 86.34 84 86 84 C85.79246094 83.05640625 85.58492187 82.1128125 85.37109375 81.140625 C79.59587135 56.4317323 61.19398929 43.17424979 40.59375 30.1640625 C35.03613033 26.77277769 29.47875164 23.5731115 23.4765625 21.03125 C13.21533903 16.68146798 7.77244537 12.71670978 2 3 C1.34 2.01 0.68 1.02 0 0 Z " fill="#040100" transform="translate(449,340)"/>
<path d="M0 0 C9.0493838 6.11444851 14.32937282 14.0559287 18.0234375 24.3671875 C18.40269021 27.46418852 18.3997914 30.50111697 18.3359375 33.6171875 C18.33916016 34.41898438 18.34238281 35.22078125 18.34570312 36.046875 C18.30955979 39.97664147 18.24664819 42.03237146 16.0234375 45.3671875 C15.96027344 44.73554688 15.89710938 44.10390625 15.83203125 43.453125 C14.24975734 31.89419774 9.5446637 21.22730109 0.26171875 13.91015625 C-10.34314337 6.59964921 -23.19568043 4.00654336 -35.9765625 5.3671875 C-44.19067436 7.04218496 -51.53579495 9.89566166 -57.9765625 15.3671875 C-58.3065625 16.0271875 -58.6365625 16.6871875 -58.9765625 17.3671875 C-59.6365625 17.3671875 -60.2965625 17.3671875 -60.9765625 17.3671875 C-61.08078274 10.93530993 -59.77255087 6.88558829 -55.28125 2.2265625 C-40.03656414 -10.07253999 -16.45757779 -10.04090486 0 0 Z " fill="#030000" transform="translate(521.9765625,171.6328125)"/>
<path d="M0 0 C0.33 0 0.66 0 1 0 C1.02578125 0.87140625 1.0515625 1.7428125 1.078125 2.640625 C1.78782078 17.54423629 5.39109465 28.03542225 16.375 38.1875 C26.05467377 46.44274017 34.87881953 50.59859486 47.77734375 50.296875 C52.4647521 49.86506526 56.60876516 48.63852046 61 47 C61.99 46.71125 62.98 46.4225 64 46.125 C66.77942099 44.56157569 67.09176766 43.00415312 68 40 C68.66666667 38.33333333 69.33333333 36.66666667 70 35 C70.33 35 70.66 35 71 35 C70.67823618 42.70624349 69.65468342 49.85743408 64.390625 55.82421875 C56.79348067 62.76585727 48.39628333 62.52474053 38.63671875 62.30078125 C25.97556874 61.68704507 15.95192781 53.47035461 7.5 44.5 C-0.57598638 34.7820081 -2.81590406 22.44253693 -2 10 C-1.43768981 6.64068139 -0.76183873 3.31944016 0 0 Z " fill="#030000" transform="translate(655,352)"/>
<path d="M0 0 C3.45063249 2.71164748 5.64415726 5.63282245 7.20703125 9.734375 C7.71042117 14.04914578 7.57062745 17.04125593 5.20703125 20.734375 C4.54703125 20.734375 3.88703125 20.734375 3.20703125 20.734375 C2.89765625 19.868125 2.58828125 19.001875 2.26953125 18.109375 C-2.3239552 10.59276081 -10.26340647 7.69318382 -18.48046875 5.4296875 C-30.06765223 2.9974721 -44.24999932 4.98779347 -54.48046875 11.234375 C-55.60113526 12.04538366 -56.70791823 12.87629934 -57.79296875 13.734375 C-58.67984375 14.353125 -59.56671875 14.971875 -60.48046875 15.609375 C-65.47395038 20.19797974 -68.3627079 25.46686017 -70.79296875 31.734375 C-71.12296875 31.734375 -71.45296875 31.734375 -71.79296875 31.734375 C-72.95172378 23.45755332 -69.26890924 16.49974448 -64.79296875 9.734375 C-59.78437705 3.53248835 -54.37508605 -1.58708263 -46.79296875 -4.265625 C-46.03113281 -4.56082031 -45.26929688 -4.85601562 -44.484375 -5.16015625 C-29.62847086 -10.1121243 -13.15460657 -8.36923001 0 0 Z " fill="#020000" transform="translate(331.79296875,172.265625)"/>
<path d="M0 0 C0.33 0 0.66 0 1 0 C1.06316406 0.73863281 1.12632812 1.47726562 1.19140625 2.23828125 C2.29578461 11.38718412 5.28865007 18.61654622 12.1328125 24.984375 C15.05718683 27.25049533 17.47538 28.82512667 21 30 C20.99476318 30.69971924 20.98952637 31.39943848 20.98413086 32.12036133 C20.96309174 35.35106475 20.95025534 38.58175366 20.9375 41.8125 C20.92912109 42.91271484 20.92074219 44.01292969 20.91210938 45.14648438 C20.87831324 56.60337437 22.07945371 67.29412406 24.4375 78.5 C27.58071139 93.70306995 30.16588926 108.26991357 30.1328125 123.84375 C30.13492737 125.34277611 30.13492737 125.34277611 30.13708496 126.87208557 C30.1392008 130.08142766 30.13296531 133.29066809 30.125 136.5 C30.1234491 137.59714325 30.12189819 138.6942865 30.12030029 139.82467651 C30.08544693 160.79050878 29.65076146 181.64935467 28.0625 202.5625 C27.98789551 203.58802979 27.91329102 204.61355957 27.83642578 205.67016602 C27.71823486 207.07286743 27.71823486 207.07286743 27.59765625 208.50390625 C27.53070557 209.32705322 27.46375488 210.1502002 27.39477539 210.99829102 C27 213 27 213 25 215 C25.14485769 210.70829986 25.29110191 206.41664785 25.4375 202.125 C25.48189209 200.81031738 25.52628418 199.49563477 25.57202148 198.14111328 C25.78667905 191.83774009 26.01289822 185.53542945 26.2890625 179.234375 C27.61736547 148.77397289 27.34021433 119.53683714 21.12060547 89.61450195 C18.7124759 77.70713707 17.84805468 65.95136724 17.875 53.8125 C17.87242187 52.62269531 17.86984375 51.43289063 17.8671875 50.20703125 C17.98566264 47.34620496 18.34045935 44.77949272 19 42 C18.10410156 41.75378906 17.20820313 41.50757813 16.28515625 41.25390625 C8.65965316 38.34333967 3.6126504 31.1487195 -0.125 24.140625 C-3.2982215 16.37756526 -2.70436397 7.77504642 0 0 Z " fill="#050100" transform="translate(329,366)"/>
<path d="M0 0 C1.68645607 5.43820981 0.2256273 10.33728153 -2.109375 15.41015625 C-8.88161359 27.93043686 -19.48384561 36.4946152 -33 41 C-43.93157194 41.70488995 -53.15388619 42.06663197 -61.8125 34.5625 C-66.75415618 27.81919834 -68.86455883 18.2133089 -68 10 C-67 6.5 -67 6.5 -66 4 C-65.67 4 -65.34 4 -65 4 C-64.76925781 5.01320313 -64.53851563 6.02640625 -64.30078125 7.0703125 C-62.11097979 17.08610471 -62.11097979 17.08610471 -56 25 C-47.83764882 29.83077927 -38.56067764 30.32741513 -29.31640625 28.45703125 C-18.25473522 24.58817094 -7.19138709 15.46337777 -1.984375 4.94921875 C-1.26734419 3.3228625 -0.62408849 1.66423597 0 0 Z " fill="#020000" transform="translate(141,373)"/>
<path d="M0 0 C1.32 0 2.64 0 4 0 C5.80230168 3.82989106 6.19622241 6.78121808 6 11 C3.36 11 0.72 11 -2 11 C-2.33 12.32 -2.66 13.64 -3 15 C-3.53367187 14.84402344 -4.06734375 14.68804687 -4.6171875 14.52734375 C-16.64716929 11.38456304 -24.53119235 14.6541655 -35 20.59765625 C-39.6854592 23.35950801 -43.95264732 26.36071374 -48 30 C-48.64710938 30.53238281 -49.29421875 31.06476562 -49.9609375 31.61328125 C-61.01458856 41.4654485 -67.13394091 56.02114424 -71 70 C-71.33 70 -71.66 70 -72 70 C-69.98725197 49.06742054 -60.28182548 28.66289756 -44 15 C-39.80452498 12.0647832 -35.46565844 9.50013976 -31 7 C-29.98421875 6.39542969 -28.9684375 5.79085937 -27.921875 5.16796875 C-19.6100862 0.52250564 -12.48593596 -0.46291625 -3.25 2 C-2.5075 2.33 -1.765 2.66 -1 3 C-0.67 2.01 -0.34 1.02 0 0 Z " fill="#030000" transform="translate(501,32)"/>
<path d="M0 0 C3.9401305 2.3983403 5.85442197 4.52183134 7 9 C7.32307692 15.35384615 7.32307692 15.35384615 6 18 C5.87267044 19.41477289 5.77190365 20.83201863 5.6875 22.25 C5.10299761 27.84323828 3.09022659 31.30522169 -1.3125 34.875 C-4.79352761 36.33217435 -7.25528098 36.40121989 -11 36 C-14.64950902 34.34113226 -17.08559854 32.5416427 -19 29 C-20.17633754 23.38977482 -19.98462205 20.40258225 -18 15 C-17.87295837 13.48090647 -17.77038888 11.95964131 -17.6875 10.4375 C-17.34924635 6.84959521 -17.04426482 6.05622829 -14.6875 3.0625 C-9.6286388 -0.81988185 -6.37306625 -1.74847543 0 0 Z " fill="#C63300" transform="translate(400,437)"/>
<path d="M0 0 C3.40654184 2.14760246 5.77828524 4.11272577 7 8 C7.17913466 12.87843388 6.76407079 17.34085955 5.8125 22.125 C5.59207031 23.30320313 5.37164062 24.48140625 5.14453125 25.6953125 C3.79611416 29.58869427 2.15076326 31.38950419 -1 34 C-5.70015175 35.56671725 -9.54085055 35.47702963 -14.25 33.9375 C-17.93142945 31.34376562 -18.79647435 29.3185332 -20 25 C-19.97881017 21.15051425 -19.21830021 17.65490063 -18 14 C-17.896875 12.72125 -17.79375 11.4425 -17.6875 10.125 C-17.20223645 6.06371738 -16.03274409 3.86425831 -13 1 C-8.7619166 -1.58993986 -4.65218395 -1.30901532 0 0 Z " fill="#C73300" transform="translate(399,223)"/>
<path d="M0 0 C3.9401305 2.3983403 5.85442197 4.52183134 7 9 C7.73099217 16.01752482 6.58410058 24.90223533 2.79296875 30.9140625 C-0.23961073 34.04742257 -3.0262639 34.92651048 -7.3125 35.25 C-11.45186869 34.96936483 -13.60968579 34.38863047 -17 32 C-20.19894001 26.73722773 -20.14467608 22.82467915 -19 17 C-18.88527344 16.08347656 -18.77054687 15.16695312 -18.65234375 14.22265625 C-18.01111415 9.58463634 -17.53867339 6.69460516 -14.625 2.9375 C-13.75875 2.298125 -12.8925 1.65875 -12 1 C-11.401875 0.54625 -10.80375 0.0925 -10.1875 -0.375 C-6.68772066 -1.37493695 -3.44899662 -0.94624559 0 0 Z " fill="#C63300" transform="translate(399,568)"/>
<path d="M0 0 C0.99 0.495 0.99 0.495 2 1 C0.94211533 2.39933447 -0.1215668 3.79428668 -1.1875 5.1875 C-1.77917969 5.96480469 -2.37085938 6.74210937 -2.98046875 7.54296875 C-8.27538052 13.9849407 -13.35566972 16.83679156 -20.875 20.1875 C-30.59967365 24.680502 -39.37560933 29.67081007 -48 36 C-48.54720703 36.39461426 -49.09441406 36.78922852 -49.65820312 37.19580078 C-55.53675539 41.44005946 -61.16653412 45.84481339 -66.4765625 50.78515625 C-68 52 -68 52 -70 52 C-70.2475 52.556875 -70.495 53.11375 -70.75 53.6875 C-72 56 -72 56 -73.8125 58.125 C-76.84455716 62.10998941 -78.86214433 66.48772267 -81 71 C-81.33 71 -81.66 71 -82 71 C-81.9501731 59.73912098 -77.12861904 50.35394615 -69.4375 42.26953125 C-50.80053398 24.91684334 -28.44755454 11.65172998 -5 2 C-4.06542969 1.58621094 -3.13085938 1.17242187 -2.16796875 0.74609375 C-1.45253906 0.49988281 -0.73710937 0.25367188 0 0 Z " fill="#050100" transform="translate(339,341)"/>
<path d="M0 0 C3.1786241 2.5699514 4.70728109 4.12184327 6 8 C6.1328125 9.9375 6.1328125 9.9375 6.125 12 C6.12886719 13.0209375 6.12886719 13.0209375 6.1328125 14.0625 C6 16 6 16 5 19 C5.04125 20.093125 5.0825 21.18625 5.125 22.3125 C4.98371705 26.48034717 4.34224032 28.56471419 2 32 C-2.34333479 34.96136463 -5.80222575 35.55690438 -11 35 C-15.20001849 33.62691703 -16.62794731 32.61208669 -18.9375 28.8125 C-20.4526063 23.3759421 -19.7927901 19.3783703 -18 14 C-17.896875 12.72125 -17.79375 11.4425 -17.6875 10.125 C-17.20223645 6.06371738 -16.03274409 3.86425831 -13 1 C-8.81211896 -1.55926064 -4.58802615 -1.45519213 0 0 Z " fill="#C63300" transform="translate(399,79)"/>
<path d="M0 0 C0.27328125 0.54785156 0.5465625 1.09570312 0.828125 1.66015625 C1.40820312 2.81837891 1.40820312 2.81837891 2 4 C2.64195312 5.29744141 2.64195312 5.29744141 3.296875 6.62109375 C6.2496101 12.34400237 8.59881244 16.43521621 14 20 C14.58394531 20.38929688 15.16789062 20.77859375 15.76953125 21.1796875 C21.36696186 24.48570558 26.62190445 24.86496353 33 24 C36.69885575 22.98193025 40.314823 21.85567682 43.93359375 20.58203125 C47 20 47 20 49.41015625 21.38671875 C49.93480469 21.91910156 50.45945312 22.45148438 51 23 C49.64947482 27.72683814 47.09922229 30.44898184 43 33 C35.51865076 36.52234731 26.43720467 38.27539574 18.375 36 C9.9537641 32.62547971 4.08269998 27.1507856 0.0234375 19.0546875 C-2.03248776 12.91829989 -2.0468056 6.14041681 0 0 Z " fill="#020000" transform="translate(448,188)"/>
<path d="M0 0 C0.33 0 0.66 0 1 0 C0.0864682 18.27063593 -12.54695896 38.33666978 -25.6875 50.625 C-32.66655858 56.45700539 -43.59348971 65 -52.8125 65 C-57.69353795 64.16136607 -61.97389953 61.82796116 -66 59 C-66.33 58.34 -66.66 57.68 -67 57 C-66.175 56.9484375 -65.35 56.896875 -64.5 56.84375 C-46.77705532 55.10310365 -28.66858809 44.54466385 -17.19140625 30.99609375 C-10.21597777 21.45927799 -4.48231775 10.92270061 0 0 Z " fill="#030000" transform="translate(365,587)"/>
<path d="M0 0 C1.56356699 4.69070096 -0.29899225 8.48985913 -2 13 C-5.67893457 19.83230705 -11.69864284 25.27988655 -19 28 C-28.23114383 30.13791302 -37.43066442 28.38191815 -45.5625 23.5625 C-48.24425612 21.70203169 -50.51144314 19.97711371 -52 17 C-51 14 -51 14 -48.8125 12.1875 C-46 11 -46 11 -43.25 11.625 C-42.1775 12.07875 -41.105 12.5325 -40 13 C-32.25182003 16.21040126 -24.4595877 17.67987314 -16.2578125 15.15625 C-8.88200011 11.83825537 -4.41164266 6.617464 0 0 Z " fill="#020000" transform="translate(349,196)"/>
<path d="M0 0 C3.5442555 2.41584937 6.19736995 5.0296695 7.828125 9.05859375 C8.23661136 13.63364094 7.83253922 16.92448941 5.828125 21.05859375 C3.9729809 19.29620685 2.44088451 17.54643698 0.890625 15.49609375 C-1.56918713 12.58904305 -3.49602946 11.2971152 -7.28515625 10.7578125 C-12.67823166 10.72907498 -16.40758253 11.47793533 -21.171875 14.05859375 C-21.501875 14.71859375 -21.831875 15.37859375 -22.171875 16.05859375 C-27.19879563 15.60160097 -30.32083761 13.06617627 -34.171875 10.05859375 C-32.72933843 6.69267509 -30.83922773 4.54812296 -28.171875 2.05859375 C-27.12 2.47109375 -26.068125 2.88359375 -24.984375 3.30859375 C-21.17398304 4.52092938 -21.17398304 4.52092938 -18.421875 2.24609375 C-17.679375 1.52421875 -16.936875 0.80234375 -16.171875 0.05859375 C-11.05334737 -1.64758213 -5.04666805 -2.1874946 0 0 Z " fill="#020000" transform="translate(328.171875,420.94140625)"/>
<path d="M0 0 C3.67395465 0.43222996 7.32244023 0.88321009 10.96875 1.51171875 C23.6798272 4.10784771 23.6798272 4.10784771 36 2 C38.3329866 1.95977609 40.66706666 1.95679753 43 2 C42.88512252 3.58409994 42.75765492 5.16728963 42.625 6.75 C42.55539062 7.63171875 42.48578125 8.5134375 42.4140625 9.421875 C42.00149945 11.99066382 41.28839043 13.75841015 40 16 C40 15.34 40 14.68 40 14 C38.35 14 36.7 14 35 14 C36.375 12 36.375 12 38 10 C38.66 10 39.32 10 40 10 C40 9.34 40 8.68 40 8 C38.78183594 8.433125 37.56367188 8.86625 36.30859375 9.3125 C34.68509146 9.87556438 33.06138243 10.43803289 31.4375 11 C30.63763672 11.28617187 29.83777344 11.57234375 29.01367188 11.8671875 C21.23574001 14.533907 15.49686866 14.41809331 7.5625 12 C6.32628906 11.62875 5.09007812 11.2575 3.81640625 10.875 C2.88699219 10.58625 1.95757812 10.2975 1 10 C0.67 6.7 0.34 3.4 0 0 Z " fill="#060100" transform="translate(372,300)"/>
<path d="M0 0 C3.99423816 1.53899857 7.44654044 3.63102696 11 6 C13.64632287 5.6878236 13.64632287 5.6878236 16 5 C19 8.625 19 8.625 19 12 C17.390625 13.421875 17.390625 13.421875 15.25 14.75 C14.55390625 15.19859375 13.8578125 15.6471875 13.140625 16.109375 C10.56457883 17.18116063 9.56497774 16.99425941 7 16 C5.32260138 15.01810813 3.65532623 14.01866229 2 13 C-2.06248957 11.64583681 -5.75222604 11.45726909 -10 12 C-14.27403857 14.22438719 -14.27403857 14.22438719 -17 18 C-17.66 18 -18.32 18 -19 18 C-19.45892255 12.26346813 -18.73458249 9.40489216 -15 5 C-10.54422956 0.71343603 -6.29937789 -1.3293364 0 0 Z " fill="#030000" transform="translate(477,420)"/>
<path d="M0 0 C9.55618074 3.78641124 18.13500197 11.94569811 23 21 C23.28139654 23.78582574 23.38863832 26.12356255 23.25 28.875 C23.23195313 29.56335938 23.21390625 30.25171875 23.1953125 30.9609375 C23.14863748 32.6412381 23.07690939 34.32081163 23 36 C22.01 36.495 22.01 36.495 21 37 C20.56300781 36.03900391 20.56300781 36.03900391 20.1171875 35.05859375 C16.33308656 27.07390277 12.62646878 21.69677216 5.1875 16.875 C2.02889658 14.56964347 1.12643359 13.52866595 0.203125 9.66796875 C-0.03635387 6.41739528 -0.12239863 3.25580354 0 0 Z " fill="#030000" transform="translate(426,338)"/>
<path d="M0 0 C0.33 0 0.66 0 1 0 C0.98952637 1.12229004 0.97905273 2.24458008 0.96826172 3.40087891 C0.780901 25.58379612 0.92217399 47.71153196 1.9375 69.875 C1.98106628 70.83142395 2.02463257 71.7878479 2.06951904 72.77325439 C2.53271159 82.76972129 3.074235 92.75483165 3.8125 102.73510742 C4.12379762 108.15565823 4.08236709 113.57292416 4 119 C2.515 119.495 2.515 119.495 1 120 C-1.13517612 93.80812762 -2.30920729 67.72097003 -2.3125 41.4375 C-2.31572266 40.16941498 -2.31894531 38.90132996 -2.32226562 37.59481812 C-2.36269799 11.62144467 -2.36269799 11.62144467 0 0 Z " fill="#080200" transform="translate(415,106)"/>
<path d="M0 0 C1.68752561 1.68752561 3.14241944 3.20769502 4.5 5.1875 C8.60206559 8.16149755 13.10796937 7.62959566 18 7 C21.08996833 5.70737631 21.08996833 5.70737631 23 4 C23.31306141 9.21769009 22.97861836 12.63135974 20 17 C15.65666521 19.96136463 12.19777425 20.55690438 7 20 C2.79998151 18.62691703 1.37205269 17.61208669 -0.9375 13.8125 C-2.30037542 8.92218232 -2.33931337 4.67862674 0 0 Z " fill="#030000" transform="translate(381,238)"/>
<path d="M0 0 C0.53625 0.763125 1.0725 1.52625 1.625 2.3125 C4.3047669 5.3448678 6.18962297 6.65516105 10 8 C15.33486102 7.90640595 18.13170974 6.63384843 22 3 C23 4 23 4 23.25 7.1875 C22.97592856 11.3670895 22.35244487 13.54974753 20 17 C15.65666521 19.96136463 12.19777425 20.55690438 7 20 C2.79998151 18.62691703 1.37205269 17.61208669 -0.9375 13.8125 C-2.30037542 8.92218232 -2.33931337 4.67862674 0 0 Z " fill="#010000" transform="translate(381,94)"/>
<path d="M0 0 C0.721875 0.763125 1.44375 1.52625 2.1875 2.3125 C6.37409874 6.5523721 6.37409874 6.5523721 11.91796875 8.0625 C16.275219 7.67010223 19.39425934 6.5916261 23 4 C23.45647158 9.70589472 22.69917584 12.60098008 19 17 C16.02893058 19.40897521 14.3254654 19.96512871 10.5 20.375 C5.90685048 19.88287684 3.53174227 18.47703719 0.25 15.3125 C-1.55216356 11.97849742 -2.02990798 8.77588269 -2 5 C-1.0625 2 -1.0625 2 0 0 Z " fill="#010000" transform="translate(382,453)"/>
<path d="M0 0 C0.721875 0.763125 1.44375 1.52625 2.1875 2.3125 C6.37409874 6.5523721 6.37409874 6.5523721 11.91796875 8.0625 C16.275219 7.67010223 19.39425934 6.5916261 23 4 C23.45647158 9.70589472 22.69917584 12.60098008 19 17 C16.02893058 19.40897521 14.3254654 19.96512871 10.5 20.375 C5.90685048 19.88287684 3.53174227 18.47703719 0.25 15.3125 C-1.55216356 11.97849742 -2.02990798 8.77588269 -2 5 C-1.0625 2 -1.0625 2 0 0 Z " fill="#010000" transform="translate(382,344)"/>
<path d="M0 0 C0.66 0.99 1.32 1.98 2 3 C5.39892041 7.60735782 5.39892041 7.60735782 10.25 10.4375 C11.1575 10.953125 12.065 11.46875 13 12 C14.21503754 17.50721159 14.19177667 23.06581486 14.1875 28.6875 C14.1884668 30.00282715 14.1884668 30.00282715 14.18945312 31.34472656 C14.13518453 38.04196449 13.4896193 44.45631522 12 51 C11.67 51 11.34 51 11 51 C10.67 41.76 10.34 32.52 10 23 C8.02 22.34 6.04 21.68 4 21 C1.01095796 18.38725067 -1.83148288 15.03004339 -2.16796875 10.9765625 C-2.17441406 10.20054687 -2.18085938 9.42453125 -2.1875 8.625 C-2.20167969 7.85414063 -2.21585937 7.08328125 -2.23046875 6.2890625 C-1.97801607 3.78165112 -1.25193467 2.16738098 0 0 Z " fill="#070100" transform="translate(412,385)"/>
<path d="M0 0 C0.598125 0.763125 1.19625 1.52625 1.8125 2.3125 C2.534375 3.199375 3.25625 4.08625 4 5 C4.433125 5.5775 4.86625 6.155 5.3125 6.75 C8.12133607 8.83061931 10.55427832 8.88514261 14 9 C16.54098532 8.24332832 18.6156463 7.21555287 21 6 C21.66 5.67 22.32 5.34 23 5 C22.88286074 9.88790166 22.73371871 13.07319741 19.625 17 C15.43956983 20.18889917 12.16110392 20.34990535 7 20 C2.79998151 18.62691703 1.37205269 17.61208669 -0.9375 13.8125 C-2.30037542 8.92218232 -2.33931337 4.67862674 0 0 Z " fill="#010000" transform="translate(381,583)"/>
<path d="M0 0 C0.33 0 0.66 0 1 0 C0.51512035 10.47340041 -3.36997629 17.80006113 -11 25 C-14.23041578 27.36145383 -16.89274151 29 -21 29 C-22.17571451 25.32589215 -22.07366746 21.83070817 -22 18 C-21.443125 17.86464844 -20.88625 17.72929687 -20.3125 17.58984375 C-12.03809948 15.25568009 -6.5823951 10.8668577 -2.0625 3.5625 C-1.68222656 2.88316406 -1.30195313 2.20382812 -0.91015625 1.50390625 C-0.60980469 1.00761719 -0.30945313 0.51132812 0 0 Z " fill="#030000" transform="translate(459,379)"/>
<path d="M0 0 C2 3 2 3 3.3125 5.4375 C6.57110407 10.38575063 10.37398384 12.42994898 16 14 C15.125 21.625 15.125 21.625 14 25 C8.08275106 24.64496506 5.10724064 23.2939334 1 19 C-1.97313852 13.8465599 -2.87463748 8.86120699 -2 3 C-1.34 2.01 -0.68 1.02 0 0 Z " fill="#050100" transform="translate(410,241)"/>
<path d="M0 0 C3.63 0.66 7.26 1.32 11 2 C11.14695312 3.27617187 11.14695312 3.27617187 11.296875 4.578125 C12.36942143 13.26944954 13.87641367 21.76044172 15.85449219 30.29589844 C16.03141602 31.10961914 16.20833984 31.92333984 16.390625 32.76171875 C16.55594727 33.48319092 16.72126953 34.20466309 16.89160156 34.94799805 C17.0258347 37.48905552 16.28952832 38.84461953 15 41 C14.01 41 13.02 41 12 41 C11.89977539 40.19256348 11.79955078 39.38512695 11.69628906 38.55322266 C11.23306051 34.90779254 10.74191842 31.26666469 10.25 27.625 C10.09273438 26.35398437 9.93546875 25.08296875 9.7734375 23.7734375 C9.60585938 22.56171875 9.43828125 21.35 9.265625 20.1015625 C9.11899414 18.98088379 8.97236328 17.86020508 8.82128906 16.70556641 C8.28557818 13.86665897 8.28557818 13.86665897 5.96826172 12.74731445 C5.31873535 12.50070068 4.66920898 12.25408691 4 12 C3.2421875 9.94140625 3.2421875 9.94140625 2.875 7.5625 C2.33674548 4.22861739 1.94708498 2.92062747 0 0 Z " fill="#080200" transform="translate(402,330)"/>
<path d="M0 0 C0.40856082 3.62204883 0.18011601 6.53801904 -1 10 C-4.20355136 13.62841259 -7.7459453 16.58104947 -11.48242188 19.63476562 C-13.94638087 21.85137738 -15.91240695 24.43180998 -18 27 C-18.33 27 -18.66 27 -19 27 C-19.68622257 20.70962643 -18.6429289 17.41750387 -14.92578125 12.31640625 C-4.68634064 0 -4.68634064 0 0 0 Z " fill="#040100" transform="translate(361,341)"/>
<path d="M0 0 C0.33 0 0.66 0 1 0 C1.10957031 1.22074219 1.21914063 2.44148437 1.33203125 3.69921875 C2.16511259 12.48907693 3.16469851 20.90200832 5.51171875 29.43359375 C6.00966948 32.0508228 5.87543 33.51471887 5 36 C-1.30278706 29.3654873 -2.05006802 22.86603177 -3 14 C-3.99 14.66 -4.98 15.32 -6 16 C-6.5750936 10.63245971 -6.34522494 7.88741281 -3.0625 3.5 C-1.41015625 1.46875 -1.41015625 1.46875 0 0 Z " fill="#0D0300" transform="translate(347,239)"/>
<path d="M0 0 C0.33 0 0.66 0 1 0 C1.31774533 4.6073073 1.42909733 7.1253016 -0.625 11.3125 C-4.57922369 15.78701628 -8.20912415 16.84182483 -14 18 C-14 14.37 -14 10.74 -14 7 C-13.15695312 6.66226562 -12.31390625 6.32453125 -11.4453125 5.9765625 C-10.34960938 5.53054688 -9.25390625 5.08453125 -8.125 4.625 C-7.03445313 4.18414062 -5.94390625 3.74328125 -4.8203125 3.2890625 C-1.93670638 2.16948662 -1.93670638 2.16948662 0 0 Z " fill="#030000" transform="translate(376,391)"/>
<path d="M0 0 C0.33 0.66 0.66 1.32 1 2 C1.7425 2.0825 2.485 2.165 3.25 2.25 C6.47108651 3.12847814 8.03589547 4.54656451 10.0546875 7.1875 C11.81898529 10.57028584 11.41855988 13.23296105 11 17 C10 20 10 20 9 22 C8.401875 21.236875 7.80375 20.47375 7.1875 19.6875 C3.78488452 15.36789787 3.78488452 15.36789787 -1 13 C-0.67 8.71 -0.34 4.42 0 0 Z " fill="#060100" transform="translate(705,363)"/>
<path d="M0 0 C0.33 0 0.66 0 1 0 C1.42064893 6.09940955 1.08964656 9.13663653 -3 14 C-5.71335021 16.44863311 -7.53043669 17.8434789 -11 19 C-11.50615298 17.73160474 -12.00469099 16.46016898 -12.5 15.1875 C-12.7784375 14.47980469 -13.056875 13.77210938 -13.34375 13.04296875 C-14 11 -14 11 -14 8 C-13.40832031 7.84144531 -12.81664062 7.68289062 -12.20703125 7.51953125 C-6.75044396 5.90836926 -3.71701324 4.29779656 0 0 Z " fill="#070100" transform="translate(375,247)"/>
<path d="M0 0 C0.33 0 0.66 0 1 0 C1.21374692 11.61564806 0.65085399 23.07739223 -0.22680664 34.65698242 C-0.4390356 37.45776532 -0.64307104 40.25905473 -0.84570312 43.06054688 C-0.97869906 44.87243022 -1.11214639 46.6842805 -1.24609375 48.49609375 C-1.3065538 49.31814804 -1.36701385 50.14020233 -1.42930603 50.98716736 C-1.83658187 56.340966 -2.38159402 61.6663734 -3 67 C-3.66 67 -4.32 67 -5 67 C-4.6532082 59.29739684 -4.29736649 51.59525614 -3.93017006 43.89359951 C-3.7599207 40.31686583 -3.5927171 36.7400453 -3.43261719 33.1628418 C-3.27781374 29.70654331 -3.1148229 26.25071689 -2.94630051 22.79506111 C-2.85324991 20.84397531 -2.76854287 18.89249733 -2.68399048 16.94102478 C-2.38743148 10.99750683 -2.01746912 5.61905207 0 0 Z " fill="#170600" transform="translate(359,156)"/>
<path d="M0 0 C3.90455515 1.30151838 5.36360558 3.06307833 7.76171875 6.3359375 C10.18681476 11.55333648 9.741024 17.39244341 9 23 C8.34 23.99 7.68 24.98 7 26 C6.31640625 24.046875 5.6328125 22.09375 4.94921875 20.140625 C4.09315079 17.93099811 4.09315079 17.93099811 2.4375 16.1875 C0.39760288 13.08330873 0.48275499 10.42750789 0.3125 6.75 C0.24675781 5.48671875 0.18101562 4.2234375 0.11328125 2.921875 C0.07589844 1.95765625 0.03851563 0.9934375 0 0 Z " fill="#0F0400" transform="translate(438,237)"/>
<path d="M0 0 C-0.99 1.485 -0.99 1.485 -2 3 C-2.39387788 5.32387947 -2.73486085 7.65793749 -3 10 C-7.95 11.485 -7.95 11.485 -13 13 C-12.67 9.37 -12.34 5.74 -12 2 C-3.96428571 -1.34821429 -3.96428571 -1.34821429 0 0 Z " fill="#090200" transform="translate(386,332)"/>
<path d="M0 0 C0.33 0 0.66 0 1 0 C1.07476562 0.75023437 1.14953125 1.50046875 1.2265625 2.2734375 C2.47013541 11.95379915 6.17437068 18.34842716 12 26 C1.81385281 22.93109668 1.81385281 22.93109668 -1 20 C-3.11008096 13.49981773 -2.6280911 6.24171635 0 0 Z " fill="#0C0300" transform="translate(328,253)"/>
<path d="M0 0 C0.33 0 0.66 0 1 0 C0.30435739 10.79445423 0.30435739 10.79445423 -3 15 C-6.25752426 16.38707485 -9.54277051 17.26055504 -13 18 C-12.125 16.83333333 -11.25 15.66666667 -10.375 14.5 C-9.83230469 13.77554687 -9.28960937 13.05109375 -8.73046875 12.3046875 C-7.59057873 10.78654956 -6.44742538 9.27085556 -5.30078125 7.7578125 C-4.76839844 7.05398438 -4.23601562 6.35015625 -3.6875 5.625 C-3.19636719 4.97789062 -2.70523437 4.33078125 -2.19921875 3.6640625 C-0.93499556 2.00342114 -0.93499556 2.00342114 0 0 Z " fill="#070100" transform="translate(457,266)"/>
<path d="M0 0 C0.33 3.3 0.66 6.6 1 10 C-3.75 12.875 -3.75 12.875 -6 14 C-6.62572422 6.02201622 -6.62572422 6.02201622 -4.125 1.9375 C-2 0 -2 0 0 0 Z " fill="#040100" transform="translate(94,366)"/>
<path d="M0 0 C0.33 0 0.66 0 1 0 C1.13275068 7.54360989 0.74219894 14.98306957 0.125 22.5 C0.04636719 23.5828125 -0.03226562 24.665625 -0.11328125 25.78125 C-0.23896484 27.328125 -0.23896484 27.328125 -0.3671875 28.90625 C-0.44050293 29.83759766 -0.51381836 30.76894531 -0.58935547 31.72851562 C-1 34 -1 34 -3 36 C-2.88201056 32.03047101 -2.75778201 28.06119219 -2.62768555 24.09204102 C-2.58428777 22.74085853 -2.5426163 21.38961947 -2.50268555 20.03833008 C-2.44510048 18.09963299 -2.38085702 16.16113724 -2.31640625 14.22265625 C-2.27974854 13.05484619 -2.24309082 11.88703613 -2.20532227 10.68383789 C-2 8 -2 8 -1 7 C-0.63239269 4.67182036 -0.29758419 2.3381615 0 0 Z " fill="#190600" transform="translate(357,545)"/>
<path d="M0 0 C-7.92 3.96 -7.92 3.96 -16 8 C-15.67 6.68 -15.34 5.36 -15 4 C-12.3828125 2.48046875 -12.3828125 2.48046875 -9.125 1.1875 C-7.52011719 0.52814453 -7.52011719 0.52814453 -5.8828125 -0.14453125 C-3 -1 -3 -1 0 0 Z " fill="#290A00" transform="translate(312,341)"/>
</svg>
